<?xml version="1.0" encoding="UTF-8"?>
<svg xmlns="http://www.w3.org/2000/svg" xmlns:xlink="http://www.w3.org/1999/xlink" width="330pt" height="160pt" viewBox="0 0 330 160" version="1.1">
<defs>
<clipPath id="clip1">
  <path d="M 5 5 L 155 5 L 155 155 L 5 155 Z M 5 5 "/>
</clipPath>
<clipPath id="clip2">
  <path d="M 79 5 L 81 5 L 81 81 L 79 81 Z M 79 5 "/>
</clipPath>
<clipPath id="clip3">
  <path d="M 79 5 L 81 5 L 81 81 L 79 81 Z M 79 5 "/>
</clipPath>
<clipPath id="clip4">
  <path d="M 79 79 L 81 79 L 81 155 L 79 155 Z M 79 79 "/>
</clipPath>
<clipPath id="clip5">
  <path d="M 79 79 L 81 79 L 81 155 L 79 155 Z M 79 79 "/>
</clipPath>
<clipPath id="clip6">
  <path d="M 104 5 L 106 5 L 106 81 L 104 81 Z M 104 5 "/>
</clipPath>
<clipPath id="clip7">
  <path d="M 54 5 L 56 5 L 56 81 L 54 81 Z M 54 5 "/>
</clipPath>
<clipPath id="clip8">
  <path d="M 104 79 L 106 79 L 106 155 L 104 155 Z M 104 79 "/>
</clipPath>
<clipPath id="clip9">
  <path d="M 54 79 L 56 79 L 56 155 L 54 155 Z M 54 79 "/>
</clipPath>
<clipPath id="clip10">
  <path d="M 129 5 L 131 5 L 131 81 L 129 81 Z M 129 5 "/>
</clipPath>
<clipPath id="clip11">
  <path d="M 29 5 L 31 5 L 31 81 L 29 81 Z M 29 5 "/>
</clipPath>
<clipPath id="clip12">
  <path d="M 129 79 L 131 79 L 131 155 L 129 155 Z M 129 79 "/>
</clipPath>
<clipPath id="clip13">
  <path d="M 29 79 L 31 79 L 31 155 L 29 155 Z M 29 79 "/>
</clipPath>
<clipPath id="clip14">
  <path d="M 152 47 L 155 47 L 155 54 L 152 54 Z M 152 47 "/>
</clipPath>
<clipPath id="clip15">
  <path d="M 154 5 L 155 5 L 155 81 L 154 81 Z M 154 5 "/>
</clipPath>
<clipPath id="clip16">
  <path d="M 153 28 L 155 28 L 155 32 L 153 32 Z M 153 28 "/>
</clipPath>
<clipPath id="clip17">
  <path d="M 153 65 L 155 65 L 155 70 L 153 70 Z M 153 65 "/>
</clipPath>
<clipPath id="clip18">
  <path d="M 153 74 L 155 74 L 155 79 L 153 79 Z M 153 74 "/>
</clipPath>
<clipPath id="clip19">
  <path d="M 5 47 L 8 47 L 8 54 L 5 54 Z M 5 47 "/>
</clipPath>
<clipPath id="clip20">
  <path d="M 5 5 L 6 5 L 6 81 L 5 81 Z M 5 5 "/>
</clipPath>
<clipPath id="clip21">
  <path d="M 5 28 L 7 28 L 7 32 L 5 32 Z M 5 28 "/>
</clipPath>
<clipPath id="clip22">
  <path d="M 5 65 L 7 65 L 7 70 L 5 70 Z M 5 65 "/>
</clipPath>
<clipPath id="clip23">
  <path d="M 5 74 L 7 74 L 7 79 L 5 79 Z M 5 74 "/>
</clipPath>
<clipPath id="clip24">
  <path d="M 152 106 L 155 106 L 155 113 L 152 113 Z M 152 106 "/>
</clipPath>
<clipPath id="clip25">
  <path d="M 154 79 L 155 79 L 155 155 L 154 155 Z M 154 79 "/>
</clipPath>
<clipPath id="clip26">
  <path d="M 153 128 L 155 128 L 155 132 L 153 132 Z M 153 128 "/>
</clipPath>
<clipPath id="clip27">
  <path d="M 153 90 L 155 90 L 155 95 L 153 95 Z M 153 90 "/>
</clipPath>
<clipPath id="clip28">
  <path d="M 153 81 L 155 81 L 155 86 L 153 86 Z M 153 81 "/>
</clipPath>
<clipPath id="clip29">
  <path d="M 5 106 L 8 106 L 8 113 L 5 113 Z M 5 106 "/>
</clipPath>
<clipPath id="clip30">
  <path d="M 5 79 L 6 79 L 6 155 L 5 155 Z M 5 79 "/>
</clipPath>
<clipPath id="clip31">
  <path d="M 5 128 L 7 128 L 7 132 L 5 132 Z M 5 128 "/>
</clipPath>
<clipPath id="clip32">
  <path d="M 5 90 L 7 90 L 7 95 L 5 95 Z M 5 90 "/>
</clipPath>
<clipPath id="clip33">
  <path d="M 5 81 L 7 81 L 7 86 L 5 86 Z M 5 81 "/>
</clipPath>
<clipPath id="clip34">
  <path d="M 175 5 L 325 5 L 325 155 L 175 155 Z M 175 5 "/>
</clipPath>
<clipPath id="clip35">
  <path d="M 175 28 L 325 28 L 325 132 L 175 132 Z M 175 28 "/>
</clipPath>
<clipPath id="clip36">
  <path d="M 175 5 L 265 5 L 265 95 L 175 95 Z M 175 5 "/>
</clipPath>
<clipPath id="clip37">
  <path d="M 175 5 L 265 5 L 265 95 L 175 95 Z M 175 5 "/>
</clipPath>
<clipPath id="clip38">
  <path d="M 235 65 L 325 65 L 325 155 L 235 155 Z M 235 65 "/>
</clipPath>
<clipPath id="clip39">
  <path d="M 235 65 L 325 65 L 325 155 L 235 155 Z M 235 65 "/>
</clipPath>
<clipPath id="clip40">
  <path d="M 175 5 L 290 5 L 290 82 L 175 82 Z M 175 5 "/>
</clipPath>
<clipPath id="clip41">
  <path d="M 175 5 L 240 5 L 240 107 L 175 107 Z M 175 5 "/>
</clipPath>
<clipPath id="clip42">
  <path d="M 175 65 L 177 65 L 177 70 L 175 70 Z M 175 65 "/>
</clipPath>
<clipPath id="clip43">
  <path d="M 260 53 L 325 53 L 325 155 L 260 155 Z M 260 53 "/>
</clipPath>
<clipPath id="clip44">
  <path d="M 323 90 L 325 90 L 325 95 L 323 95 Z M 323 90 "/>
</clipPath>
<clipPath id="clip45">
  <path d="M 210 78 L 325 78 L 325 155 L 210 155 Z M 210 78 "/>
</clipPath>
<clipPath id="clip46">
  <path d="M 175 5 L 315 5 L 315 70 L 175 70 Z M 175 5 "/>
</clipPath>
<clipPath id="clip47">
  <path d="M 175 5 L 215 5 L 215 120 L 175 120 Z M 175 5 "/>
</clipPath>
<clipPath id="clip48">
  <path d="M 285 40 L 325 40 L 325 155 L 285 155 Z M 285 40 "/>
</clipPath>
<clipPath id="clip49">
  <path d="M 185 90 L 325 90 L 325 155 L 185 155 Z M 185 90 "/>
</clipPath>
<clipPath id="clip50">
  <path d="M 175 5 L 325 5 L 325 57 L 175 57 Z M 175 5 "/>
</clipPath>
<clipPath id="clip51">
  <path d="M 175 5 L 190 5 L 190 132 L 175 132 Z M 175 5 "/>
</clipPath>
<clipPath id="clip52">
  <path d="M 310 28 L 325 28 L 325 155 L 310 155 Z M 310 28 "/>
</clipPath>
<clipPath id="clip53">
  <path d="M 175 103 L 325 103 L 325 155 L 175 155 Z M 175 103 "/>
</clipPath>
</defs>
<g id="surface1">
<g clip-path="url(#clip1)" clip-rule="nonzero">
<path style="fill:none;stroke-width:10;stroke-linecap:butt;stroke-linejoin:miter;stroke:rgb(80.076599%,80.076599%,80.076599%);stroke-opacity:1;stroke-miterlimit:10;" d="M -450 -450 L -450 2050 M -325 -450 L -325 2050 M -200 -450 L -200 2050 M -75 -450 L -75 2050 M 50 -450 L 50 2050 M 175 -450 L 175 2050 M 300 -450 L 300 2050 M 425 -450 L 425 2050 M 550 -450 L 550 2050 M 675 -450 L 675 2050 M 800 -450 L 800 2050 M 925 -450 L 925 2050 M 1050 -450 L 1050 2050 M 1175 -450 L 1175 2050 M 1300 -450 L 1300 2050 M 1425 -450 L 1425 2050 M 1550 -450 L 1550 2050 M 1675 -450 L 1675 2050 M 1800 -450 L 1800 2050 M 1925 -450 L 1925 2050 M 2050 -450 L 2050 2050 M -450 -450 L 2050 -450 M -450 -325 L 2050 -325 M -450 -200 L 2050 -200 M -450 -75 L 2050 -75 M -450 50 L 2050 50 M -450 175 L 2050 175 M -450 300 L 2050 300 M -450 425 L 2050 425 M -450 550 L 2050 550 M -450 675 L 2050 675 M -450 800 L 2050 800 M -450 925 L 2050 925 M -450 1050 L 2050 1050 M -450 1175 L 2050 1175 M -450 1300 L 2050 1300 M -450 1425 L 2050 1425 M -450 1550 L 2050 1550 M -450 1675 L 2050 1675 M -450 1800 L 2050 1800 M -450 1925 L 2050 1925 M -450 2050 L 2050 2050 M -450 -450 L 2050 -450 L 2050 2050 L -450 2050 Z M -450 -450 " transform="matrix(0.1,0,0,-0.1,0,160)"/>
<path style="fill:none;stroke-width:10;stroke-linecap:butt;stroke-linejoin:miter;stroke:rgb(0%,0%,0%);stroke-opacity:1;stroke-miterlimit:10;" d="M 50 800 L 1550 800 M 800 50 L 800 1550 " transform="matrix(0.1,0,0,-0.1,0,160)"/>
</g>
<path style=" stroke:none;fill-rule:nonzero;fill:rgb(0%,0%,100%);fill-opacity:1;" d="M 79.5 51.28125 L 79.5 48.746094 L 77.5 47.589844 L 80 53.207031 L 82.5 47.589844 L 80.5 48.746094 L 80.5 51.28125 L 79.5 51.28125 "/>
<g clip-path="url(#clip2)" clip-rule="nonzero">
<path style="fill:none;stroke-width:10;stroke-linecap:butt;stroke-linejoin:miter;stroke:rgb(0%,0%,100%);stroke-opacity:1;stroke-miterlimit:10;" d="M 800 8387608.007812 L 800 800.46875 " transform="matrix(0.1,0,0,-0.1,0,160)"/>
</g>
<path style=" stroke:none;fill-rule:nonzero;fill:rgb(0%,0%,0%);fill-opacity:1;" d="M 82 30 C 82 28.894531 81.105469 28 80 28 C 78.894531 28 78 28.894531 78 30 C 78 31.105469 78.894531 32 80 32 C 81.105469 32 82 31.105469 82 30 "/>
<path style=" stroke:none;fill-rule:nonzero;fill:rgb(0%,0%,0%);fill-opacity:1;" d="M 82 67.5 C 82 66.394531 81.105469 65.5 80 65.5 C 78.894531 65.5 78 66.394531 78 67.5 C 78 68.605469 78.894531 69.5 80 69.5 C 81.105469 69.5 82 68.605469 82 67.5 "/>
<path style=" stroke:none;fill-rule:nonzero;fill:rgb(0%,0%,0%);fill-opacity:1;" d="M 82 76.875 C 82 75.769531 81.105469 74.875 80 74.875 C 78.894531 74.875 78 75.769531 78 76.875 C 78 77.980469 78.894531 78.875 80 78.875 C 81.105469 78.875 82 77.980469 82 76.875 "/>
<path style=" stroke:none;fill-rule:nonzero;fill:rgb(0%,0%,100%);fill-opacity:1;" d="M 79.5 51.28125 L 79.5 48.746094 L 77.5 47.589844 L 80 53.207031 L 82.5 47.589844 L 80.5 48.746094 L 80.5 51.28125 L 79.5 51.28125 "/>
<g clip-path="url(#clip3)" clip-rule="nonzero">
<path style="fill:none;stroke-width:10;stroke-linecap:butt;stroke-linejoin:miter;stroke:rgb(0%,0%,100%);stroke-opacity:1;stroke-miterlimit:10;" d="M 800 8387608.007812 L 800 800.46875 " transform="matrix(0.1,0,0,-0.1,0,160)"/>
</g>
<path style=" stroke:none;fill-rule:nonzero;fill:rgb(0%,0%,0%);fill-opacity:1;" d="M 82 30 C 82 28.894531 81.105469 28 80 28 C 78.894531 28 78 28.894531 78 30 C 78 31.105469 78.894531 32 80 32 C 81.105469 32 82 31.105469 82 30 "/>
<path style=" stroke:none;fill-rule:nonzero;fill:rgb(0%,0%,0%);fill-opacity:1;" d="M 82 67.5 C 82 66.394531 81.105469 65.5 80 65.5 C 78.894531 65.5 78 66.394531 78 67.5 C 78 68.605469 78.894531 69.5 80 69.5 C 81.105469 69.5 82 68.605469 82 67.5 "/>
<path style=" stroke:none;fill-rule:nonzero;fill:rgb(0%,0%,0%);fill-opacity:1;" d="M 82 76.875 C 82 75.769531 81.105469 74.875 80 74.875 C 78.894531 74.875 78 75.769531 78 76.875 C 78 77.980469 78.894531 78.875 80 78.875 C 81.105469 78.875 82 77.980469 82 76.875 "/>
<path style=" stroke:none;fill-rule:nonzero;fill:rgb(0%,0%,100%);fill-opacity:1;" d="M 80.5 108.71875 L 80.5 111.253906 L 82.5 112.410156 L 80 106.792969 L 77.5 112.410156 L 79.5 111.253906 L 79.5 108.71875 L 80.5 108.71875 "/>
<g clip-path="url(#clip4)" clip-rule="nonzero">
<path style="fill:none;stroke-width:10;stroke-linecap:butt;stroke-linejoin:miter;stroke:rgb(0%,0%,100%);stroke-opacity:1;stroke-miterlimit:10;" d="M 800 -8387608.007812 L 800 799.53125 " transform="matrix(0.1,0,0,-0.1,0,160)"/>
</g>
<path style=" stroke:none;fill-rule:nonzero;fill:rgb(0%,0%,0%);fill-opacity:1;" d="M 82 130 C 82 128.894531 81.105469 128 80 128 C 78.894531 128 78 128.894531 78 130 C 78 131.105469 78.894531 132 80 132 C 81.105469 132 82 131.105469 82 130 "/>
<path style=" stroke:none;fill-rule:nonzero;fill:rgb(0%,0%,0%);fill-opacity:1;" d="M 82 92.5 C 82 91.394531 81.105469 90.5 80 90.5 C 78.894531 90.5 78 91.394531 78 92.5 C 78 93.605469 78.894531 94.5 80 94.5 C 81.105469 94.5 82 93.605469 82 92.5 "/>
<path style=" stroke:none;fill-rule:nonzero;fill:rgb(0%,0%,0%);fill-opacity:1;" d="M 82 83.125 C 82 82.019531 81.105469 81.125 80 81.125 C 78.894531 81.125 78 82.019531 78 83.125 C 78 84.230469 78.894531 85.125 80 85.125 C 81.105469 85.125 82 84.230469 82 83.125 "/>
<path style=" stroke:none;fill-rule:nonzero;fill:rgb(0%,0%,100%);fill-opacity:1;" d="M 80.5 108.71875 L 80.5 111.253906 L 82.5 112.410156 L 80 106.792969 L 77.5 112.410156 L 79.5 111.253906 L 79.5 108.71875 L 80.5 108.71875 "/>
<g clip-path="url(#clip5)" clip-rule="nonzero">
<path style="fill:none;stroke-width:10;stroke-linecap:butt;stroke-linejoin:miter;stroke:rgb(0%,0%,100%);stroke-opacity:1;stroke-miterlimit:10;" d="M 800 -8387608.007812 L 800 799.53125 " transform="matrix(0.1,0,0,-0.1,0,160)"/>
</g>
<path style=" stroke:none;fill-rule:nonzero;fill:rgb(0%,0%,0%);fill-opacity:1;" d="M 82 130 C 82 128.894531 81.105469 128 80 128 C 78.894531 128 78 128.894531 78 130 C 78 131.105469 78.894531 132 80 132 C 81.105469 132 82 131.105469 82 130 "/>
<path style=" stroke:none;fill-rule:nonzero;fill:rgb(0%,0%,0%);fill-opacity:1;" d="M 82 92.5 C 82 91.394531 81.105469 90.5 80 90.5 C 78.894531 90.5 78 91.394531 78 92.5 C 78 93.605469 78.894531 94.5 80 94.5 C 81.105469 94.5 82 93.605469 82 92.5 "/>
<path style=" stroke:none;fill-rule:nonzero;fill:rgb(0%,0%,0%);fill-opacity:1;" d="M 82 83.125 C 82 82.019531 81.105469 81.125 80 81.125 C 78.894531 81.125 78 82.019531 78 83.125 C 78 84.230469 78.894531 85.125 80 85.125 C 81.105469 85.125 82 84.230469 82 83.125 "/>
<path style=" stroke:none;fill-rule:nonzero;fill:rgb(0%,0%,100%);fill-opacity:1;" d="M 104.5 51.28125 L 104.5 48.746094 L 102.5 47.589844 L 105 53.207031 L 107.5 47.589844 L 105.5 48.746094 L 105.5 51.28125 L 104.5 51.28125 "/>
<g clip-path="url(#clip6)" clip-rule="nonzero">
<path style="fill:none;stroke-width:10;stroke-linecap:butt;stroke-linejoin:miter;stroke:rgb(0%,0%,100%);stroke-opacity:1;stroke-miterlimit:10;" d="M 1050 8387608.007812 L 1050 800.46875 " transform="matrix(0.1,0,0,-0.1,0,160)"/>
</g>
<path style=" stroke:none;fill-rule:nonzero;fill:rgb(0%,0%,0%);fill-opacity:1;" d="M 107 30 C 107 28.894531 106.105469 28 105 28 C 103.894531 28 103 28.894531 103 30 C 103 31.105469 103.894531 32 105 32 C 106.105469 32 107 31.105469 107 30 "/>
<path style=" stroke:none;fill-rule:nonzero;fill:rgb(0%,0%,0%);fill-opacity:1;" d="M 107 67.5 C 107 66.394531 106.105469 65.5 105 65.5 C 103.894531 65.5 103 66.394531 103 67.5 C 103 68.605469 103.894531 69.5 105 69.5 C 106.105469 69.5 107 68.605469 107 67.5 "/>
<path style=" stroke:none;fill-rule:nonzero;fill:rgb(0%,0%,0%);fill-opacity:1;" d="M 107 76.875 C 107 75.769531 106.105469 74.875 105 74.875 C 103.894531 74.875 103 75.769531 103 76.875 C 103 77.980469 103.894531 78.875 105 78.875 C 106.105469 78.875 107 77.980469 107 76.875 "/>
<path style=" stroke:none;fill-rule:nonzero;fill:rgb(0%,0%,100%);fill-opacity:1;" d="M 54.5 51.28125 L 54.5 48.746094 L 52.5 47.589844 L 55 53.207031 L 57.5 47.589844 L 55.5 48.746094 L 55.5 51.28125 L 54.5 51.28125 "/>
<g clip-path="url(#clip7)" clip-rule="nonzero">
<path style="fill:none;stroke-width:10;stroke-linecap:butt;stroke-linejoin:miter;stroke:rgb(0%,0%,100%);stroke-opacity:1;stroke-miterlimit:10;" d="M 550 8387608.007812 L 550 800.46875 " transform="matrix(0.1,0,0,-0.1,0,160)"/>
</g>
<path style=" stroke:none;fill-rule:nonzero;fill:rgb(0%,0%,0%);fill-opacity:1;" d="M 57 30 C 57 28.894531 56.105469 28 55 28 C 53.894531 28 53 28.894531 53 30 C 53 31.105469 53.894531 32 55 32 C 56.105469 32 57 31.105469 57 30 "/>
<path style=" stroke:none;fill-rule:nonzero;fill:rgb(0%,0%,0%);fill-opacity:1;" d="M 57 67.5 C 57 66.394531 56.105469 65.5 55 65.5 C 53.894531 65.5 53 66.394531 53 67.5 C 53 68.605469 53.894531 69.5 55 69.5 C 56.105469 69.5 57 68.605469 57 67.5 "/>
<path style=" stroke:none;fill-rule:nonzero;fill:rgb(0%,0%,0%);fill-opacity:1;" d="M 57 76.875 C 57 75.769531 56.105469 74.875 55 74.875 C 53.894531 74.875 53 75.769531 53 76.875 C 53 77.980469 53.894531 78.875 55 78.875 C 56.105469 78.875 57 77.980469 57 76.875 "/>
<path style=" stroke:none;fill-rule:nonzero;fill:rgb(0%,0%,100%);fill-opacity:1;" d="M 105.5 108.71875 L 105.5 111.253906 L 107.5 112.410156 L 105 106.792969 L 102.5 112.410156 L 104.5 111.253906 L 104.5 108.71875 L 105.5 108.71875 "/>
<g clip-path="url(#clip8)" clip-rule="nonzero">
<path style="fill:none;stroke-width:10;stroke-linecap:butt;stroke-linejoin:miter;stroke:rgb(0%,0%,100%);stroke-opacity:1;stroke-miterlimit:10;" d="M 1050 -8387608.007812 L 1050 799.53125 " transform="matrix(0.1,0,0,-0.1,0,160)"/>
</g>
<path style=" stroke:none;fill-rule:nonzero;fill:rgb(0%,0%,0%);fill-opacity:1;" d="M 107 130 C 107 128.894531 106.105469 128 105 128 C 103.894531 128 103 128.894531 103 130 C 103 131.105469 103.894531 132 105 132 C 106.105469 132 107 131.105469 107 130 "/>
<path style=" stroke:none;fill-rule:nonzero;fill:rgb(0%,0%,0%);fill-opacity:1;" d="M 107 92.5 C 107 91.394531 106.105469 90.5 105 90.5 C 103.894531 90.5 103 91.394531 103 92.5 C 103 93.605469 103.894531 94.5 105 94.5 C 106.105469 94.5 107 93.605469 107 92.5 "/>
<path style=" stroke:none;fill-rule:nonzero;fill:rgb(0%,0%,0%);fill-opacity:1;" d="M 107 83.125 C 107 82.019531 106.105469 81.125 105 81.125 C 103.894531 81.125 103 82.019531 103 83.125 C 103 84.230469 103.894531 85.125 105 85.125 C 106.105469 85.125 107 84.230469 107 83.125 "/>
<path style=" stroke:none;fill-rule:nonzero;fill:rgb(0%,0%,100%);fill-opacity:1;" d="M 55.5 108.71875 L 55.5 111.253906 L 57.5 112.410156 L 55 106.792969 L 52.5 112.410156 L 54.5 111.253906 L 54.5 108.71875 L 55.5 108.71875 "/>
<g clip-path="url(#clip9)" clip-rule="nonzero">
<path style="fill:none;stroke-width:10;stroke-linecap:butt;stroke-linejoin:miter;stroke:rgb(0%,0%,100%);stroke-opacity:1;stroke-miterlimit:10;" d="M 550 -8387608.007812 L 550 799.53125 " transform="matrix(0.1,0,0,-0.1,0,160)"/>
</g>
<path style=" stroke:none;fill-rule:nonzero;fill:rgb(0%,0%,0%);fill-opacity:1;" d="M 57 130 C 57 128.894531 56.105469 128 55 128 C 53.894531 128 53 128.894531 53 130 C 53 131.105469 53.894531 132 55 132 C 56.105469 132 57 131.105469 57 130 "/>
<path style=" stroke:none;fill-rule:nonzero;fill:rgb(0%,0%,0%);fill-opacity:1;" d="M 57 92.5 C 57 91.394531 56.105469 90.5 55 90.5 C 53.894531 90.5 53 91.394531 53 92.5 C 53 93.605469 53.894531 94.5 55 94.5 C 56.105469 94.5 57 93.605469 57 92.5 "/>
<path style=" stroke:none;fill-rule:nonzero;fill:rgb(0%,0%,0%);fill-opacity:1;" d="M 57 83.125 C 57 82.019531 56.105469 81.125 55 81.125 C 53.894531 81.125 53 82.019531 53 83.125 C 53 84.230469 53.894531 85.125 55 85.125 C 56.105469 85.125 57 84.230469 57 83.125 "/>
<path style=" stroke:none;fill-rule:nonzero;fill:rgb(0%,0%,100%);fill-opacity:1;" d="M 129.5 51.28125 L 129.5 48.746094 L 127.5 47.589844 L 130 53.207031 L 132.5 47.589844 L 130.5 48.746094 L 130.5 51.28125 L 129.5 51.28125 "/>
<g clip-path="url(#clip10)" clip-rule="nonzero">
<path style="fill:none;stroke-width:10;stroke-linecap:butt;stroke-linejoin:miter;stroke:rgb(0%,0%,100%);stroke-opacity:1;stroke-miterlimit:10;" d="M 1300 8387608.007812 L 1300 800.46875 " transform="matrix(0.1,0,0,-0.1,0,160)"/>
</g>
<path style=" stroke:none;fill-rule:nonzero;fill:rgb(0%,0%,0%);fill-opacity:1;" d="M 132 30 C 132 28.894531 131.105469 28 130 28 C 128.894531 28 128 28.894531 128 30 C 128 31.105469 128.894531 32 130 32 C 131.105469 32 132 31.105469 132 30 "/>
<path style=" stroke:none;fill-rule:nonzero;fill:rgb(0%,0%,0%);fill-opacity:1;" d="M 132 67.5 C 132 66.394531 131.105469 65.5 130 65.5 C 128.894531 65.5 128 66.394531 128 67.5 C 128 68.605469 128.894531 69.5 130 69.5 C 131.105469 69.5 132 68.605469 132 67.5 "/>
<path style=" stroke:none;fill-rule:nonzero;fill:rgb(0%,0%,0%);fill-opacity:1;" d="M 132 76.875 C 132 75.769531 131.105469 74.875 130 74.875 C 128.894531 74.875 128 75.769531 128 76.875 C 128 77.980469 128.894531 78.875 130 78.875 C 131.105469 78.875 132 77.980469 132 76.875 "/>
<path style=" stroke:none;fill-rule:nonzero;fill:rgb(0%,0%,100%);fill-opacity:1;" d="M 29.5 51.28125 L 29.5 48.746094 L 27.5 47.589844 L 30 53.207031 L 32.5 47.589844 L 30.5 48.746094 L 30.5 51.28125 L 29.5 51.28125 "/>
<g clip-path="url(#clip11)" clip-rule="nonzero">
<path style="fill:none;stroke-width:10;stroke-linecap:butt;stroke-linejoin:miter;stroke:rgb(0%,0%,100%);stroke-opacity:1;stroke-miterlimit:10;" d="M 300 8387608.007812 L 300 800.46875 " transform="matrix(0.1,0,0,-0.1,0,160)"/>
</g>
<path style=" stroke:none;fill-rule:nonzero;fill:rgb(0%,0%,0%);fill-opacity:1;" d="M 32 30 C 32 28.894531 31.105469 28 30 28 C 28.894531 28 28 28.894531 28 30 C 28 31.105469 28.894531 32 30 32 C 31.105469 32 32 31.105469 32 30 "/>
<path style=" stroke:none;fill-rule:nonzero;fill:rgb(0%,0%,0%);fill-opacity:1;" d="M 32 67.5 C 32 66.394531 31.105469 65.5 30 65.5 C 28.894531 65.5 28 66.394531 28 67.5 C 28 68.605469 28.894531 69.5 30 69.5 C 31.105469 69.5 32 68.605469 32 67.5 "/>
<path style=" stroke:none;fill-rule:nonzero;fill:rgb(0%,0%,0%);fill-opacity:1;" d="M 32 76.875 C 32 75.769531 31.105469 74.875 30 74.875 C 28.894531 74.875 28 75.769531 28 76.875 C 28 77.980469 28.894531 78.875 30 78.875 C 31.105469 78.875 32 77.980469 32 76.875 "/>
<path style=" stroke:none;fill-rule:nonzero;fill:rgb(0%,0%,100%);fill-opacity:1;" d="M 130.5 108.71875 L 130.5 111.253906 L 132.5 112.410156 L 130 106.792969 L 127.5 112.410156 L 129.5 111.253906 L 129.5 108.71875 L 130.5 108.71875 "/>
<g clip-path="url(#clip12)" clip-rule="nonzero">
<path style="fill:none;stroke-width:10;stroke-linecap:butt;stroke-linejoin:miter;stroke:rgb(0%,0%,100%);stroke-opacity:1;stroke-miterlimit:10;" d="M 1300 -8387608.007812 L 1300 799.53125 " transform="matrix(0.1,0,0,-0.1,0,160)"/>
</g>
<path style=" stroke:none;fill-rule:nonzero;fill:rgb(0%,0%,0%);fill-opacity:1;" d="M 132 130 C 132 128.894531 131.105469 128 130 128 C 128.894531 128 128 128.894531 128 130 C 128 131.105469 128.894531 132 130 132 C 131.105469 132 132 131.105469 132 130 "/>
<path style=" stroke:none;fill-rule:nonzero;fill:rgb(0%,0%,0%);fill-opacity:1;" d="M 132 92.5 C 132 91.394531 131.105469 90.5 130 90.5 C 128.894531 90.5 128 91.394531 128 92.5 C 128 93.605469 128.894531 94.5 130 94.5 C 131.105469 94.5 132 93.605469 132 92.5 "/>
<path style=" stroke:none;fill-rule:nonzero;fill:rgb(0%,0%,0%);fill-opacity:1;" d="M 132 83.125 C 132 82.019531 131.105469 81.125 130 81.125 C 128.894531 81.125 128 82.019531 128 83.125 C 128 84.230469 128.894531 85.125 130 85.125 C 131.105469 85.125 132 84.230469 132 83.125 "/>
<path style=" stroke:none;fill-rule:nonzero;fill:rgb(0%,0%,100%);fill-opacity:1;" d="M 30.5 108.71875 L 30.5 111.253906 L 32.5 112.410156 L 30 106.792969 L 27.5 112.410156 L 29.5 111.253906 L 29.5 108.71875 L 30.5 108.71875 "/>
<g clip-path="url(#clip13)" clip-rule="nonzero">
<path style="fill:none;stroke-width:10;stroke-linecap:butt;stroke-linejoin:miter;stroke:rgb(0%,0%,100%);stroke-opacity:1;stroke-miterlimit:10;" d="M 300 -8387608.007812 L 300 799.53125 " transform="matrix(0.1,0,0,-0.1,0,160)"/>
</g>
<path style=" stroke:none;fill-rule:nonzero;fill:rgb(0%,0%,0%);fill-opacity:1;" d="M 32 130 C 32 128.894531 31.105469 128 30 128 C 28.894531 128 28 128.894531 28 130 C 28 131.105469 28.894531 132 30 132 C 31.105469 132 32 131.105469 32 130 "/>
<path style=" stroke:none;fill-rule:nonzero;fill:rgb(0%,0%,0%);fill-opacity:1;" d="M 32 92.5 C 32 91.394531 31.105469 90.5 30 90.5 C 28.894531 90.5 28 91.394531 28 92.5 C 28 93.605469 28.894531 94.5 30 94.5 C 31.105469 94.5 32 93.605469 32 92.5 "/>
<path style=" stroke:none;fill-rule:nonzero;fill:rgb(0%,0%,0%);fill-opacity:1;" d="M 32 83.125 C 32 82.019531 31.105469 81.125 30 81.125 C 28.894531 81.125 28 82.019531 28 83.125 C 28 84.230469 28.894531 85.125 30 85.125 C 31.105469 85.125 32 84.230469 32 83.125 "/>
<g clip-path="url(#clip14)" clip-rule="nonzero">
<path style=" stroke:none;fill-rule:nonzero;fill:rgb(0%,0%,100%);fill-opacity:1;" d="M 154.5 51.28125 L 154.5 48.746094 L 152.5 47.589844 L 155 53.207031 L 157.5 47.589844 L 155.5 48.746094 L 155.5 51.28125 L 154.5 51.28125 "/>
</g>
<g clip-path="url(#clip15)" clip-rule="nonzero">
<path style="fill:none;stroke-width:10;stroke-linecap:butt;stroke-linejoin:miter;stroke:rgb(0%,0%,100%);stroke-opacity:1;stroke-miterlimit:10;" d="M 1550 8387608.007812 L 1550 800.46875 " transform="matrix(0.1,0,0,-0.1,0,160)"/>
</g>
<g clip-path="url(#clip16)" clip-rule="nonzero">
<path style=" stroke:none;fill-rule:nonzero;fill:rgb(0%,0%,0%);fill-opacity:1;" d="M 157 30 C 157 28.894531 156.105469 28 155 28 C 153.894531 28 153 28.894531 153 30 C 153 31.105469 153.894531 32 155 32 C 156.105469 32 157 31.105469 157 30 "/>
</g>
<g clip-path="url(#clip17)" clip-rule="nonzero">
<path style=" stroke:none;fill-rule:nonzero;fill:rgb(0%,0%,0%);fill-opacity:1;" d="M 157 67.5 C 157 66.394531 156.105469 65.5 155 65.5 C 153.894531 65.5 153 66.394531 153 67.5 C 153 68.605469 153.894531 69.5 155 69.5 C 156.105469 69.5 157 68.605469 157 67.5 "/>
</g>
<g clip-path="url(#clip18)" clip-rule="nonzero">
<path style=" stroke:none;fill-rule:nonzero;fill:rgb(0%,0%,0%);fill-opacity:1;" d="M 157 76.875 C 157 75.769531 156.105469 74.875 155 74.875 C 153.894531 74.875 153 75.769531 153 76.875 C 153 77.980469 153.894531 78.875 155 78.875 C 156.105469 78.875 157 77.980469 157 76.875 "/>
</g>
<g clip-path="url(#clip19)" clip-rule="nonzero">
<path style=" stroke:none;fill-rule:nonzero;fill:rgb(0%,0%,100%);fill-opacity:1;" d="M 4.5 51.28125 L 4.5 48.746094 L 2.5 47.589844 L 5 53.207031 L 7.5 47.589844 L 5.5 48.746094 L 5.5 51.28125 L 4.5 51.28125 "/>
</g>
<g clip-path="url(#clip20)" clip-rule="nonzero">
<path style="fill:none;stroke-width:10;stroke-linecap:butt;stroke-linejoin:miter;stroke:rgb(0%,0%,100%);stroke-opacity:1;stroke-miterlimit:10;" d="M 50 8387608.007812 L 50 800.46875 " transform="matrix(0.1,0,0,-0.1,0,160)"/>
</g>
<g clip-path="url(#clip21)" clip-rule="nonzero">
<path style=" stroke:none;fill-rule:nonzero;fill:rgb(0%,0%,0%);fill-opacity:1;" d="M 7 30 C 7 28.894531 6.105469 28 5 28 C 3.894531 28 3 28.894531 3 30 C 3 31.105469 3.894531 32 5 32 C 6.105469 32 7 31.105469 7 30 "/>
</g>
<g clip-path="url(#clip22)" clip-rule="nonzero">
<path style=" stroke:none;fill-rule:nonzero;fill:rgb(0%,0%,0%);fill-opacity:1;" d="M 7 67.5 C 7 66.394531 6.105469 65.5 5 65.5 C 3.894531 65.5 3 66.394531 3 67.5 C 3 68.605469 3.894531 69.5 5 69.5 C 6.105469 69.5 7 68.605469 7 67.5 "/>
</g>
<g clip-path="url(#clip23)" clip-rule="nonzero">
<path style=" stroke:none;fill-rule:nonzero;fill:rgb(0%,0%,0%);fill-opacity:1;" d="M 7 76.875 C 7 75.769531 6.105469 74.875 5 74.875 C 3.894531 74.875 3 75.769531 3 76.875 C 3 77.980469 3.894531 78.875 5 78.875 C 6.105469 78.875 7 77.980469 7 76.875 "/>
</g>
<g clip-path="url(#clip24)" clip-rule="nonzero">
<path style=" stroke:none;fill-rule:nonzero;fill:rgb(0%,0%,100%);fill-opacity:1;" d="M 155.5 108.71875 L 155.5 111.253906 L 157.5 112.410156 L 155 106.792969 L 152.5 112.410156 L 154.5 111.253906 L 154.5 108.71875 L 155.5 108.71875 "/>
</g>
<g clip-path="url(#clip25)" clip-rule="nonzero">
<path style="fill:none;stroke-width:10;stroke-linecap:butt;stroke-linejoin:miter;stroke:rgb(0%,0%,100%);stroke-opacity:1;stroke-miterlimit:10;" d="M 1550 -8387608.007812 L 1550 799.53125 " transform="matrix(0.1,0,0,-0.1,0,160)"/>
</g>
<g clip-path="url(#clip26)" clip-rule="nonzero">
<path style=" stroke:none;fill-rule:nonzero;fill:rgb(0%,0%,0%);fill-opacity:1;" d="M 157 130 C 157 128.894531 156.105469 128 155 128 C 153.894531 128 153 128.894531 153 130 C 153 131.105469 153.894531 132 155 132 C 156.105469 132 157 131.105469 157 130 "/>
</g>
<g clip-path="url(#clip27)" clip-rule="nonzero">
<path style=" stroke:none;fill-rule:nonzero;fill:rgb(0%,0%,0%);fill-opacity:1;" d="M 157 92.5 C 157 91.394531 156.105469 90.5 155 90.5 C 153.894531 90.5 153 91.394531 153 92.5 C 153 93.605469 153.894531 94.5 155 94.5 C 156.105469 94.5 157 93.605469 157 92.5 "/>
</g>
<g clip-path="url(#clip28)" clip-rule="nonzero">
<path style=" stroke:none;fill-rule:nonzero;fill:rgb(0%,0%,0%);fill-opacity:1;" d="M 157 83.125 C 157 82.019531 156.105469 81.125 155 81.125 C 153.894531 81.125 153 82.019531 153 83.125 C 153 84.230469 153.894531 85.125 155 85.125 C 156.105469 85.125 157 84.230469 157 83.125 "/>
</g>
<g clip-path="url(#clip29)" clip-rule="nonzero">
<path style=" stroke:none;fill-rule:nonzero;fill:rgb(0%,0%,100%);fill-opacity:1;" d="M 5.5 108.71875 L 5.5 111.253906 L 7.5 112.410156 L 5 106.792969 L 2.5 112.410156 L 4.5 111.253906 L 4.5 108.71875 L 5.5 108.71875 "/>
</g>
<g clip-path="url(#clip30)" clip-rule="nonzero">
<path style="fill:none;stroke-width:10;stroke-linecap:butt;stroke-linejoin:miter;stroke:rgb(0%,0%,100%);stroke-opacity:1;stroke-miterlimit:10;" d="M 50 -8387608.007812 L 50 799.53125 " transform="matrix(0.1,0,0,-0.1,0,160)"/>
</g>
<g clip-path="url(#clip31)" clip-rule="nonzero">
<path style=" stroke:none;fill-rule:nonzero;fill:rgb(0%,0%,0%);fill-opacity:1;" d="M 7 130 C 7 128.894531 6.105469 128 5 128 C 3.894531 128 3 128.894531 3 130 C 3 131.105469 3.894531 132 5 132 C 6.105469 132 7 131.105469 7 130 "/>
</g>
<g clip-path="url(#clip32)" clip-rule="nonzero">
<path style=" stroke:none;fill-rule:nonzero;fill:rgb(0%,0%,0%);fill-opacity:1;" d="M 7 92.5 C 7 91.394531 6.105469 90.5 5 90.5 C 3.894531 90.5 3 91.394531 3 92.5 C 3 93.605469 3.894531 94.5 5 94.5 C 6.105469 94.5 7 93.605469 7 92.5 "/>
</g>
<g clip-path="url(#clip33)" clip-rule="nonzero">
<path style=" stroke:none;fill-rule:nonzero;fill:rgb(0%,0%,0%);fill-opacity:1;" d="M 7 83.125 C 7 82.019531 6.105469 81.125 5 81.125 C 3.894531 81.125 3 82.019531 3 83.125 C 3 84.230469 3.894531 85.125 5 85.125 C 6.105469 85.125 7 84.230469 7 83.125 "/>
</g>
<g clip-path="url(#clip34)" clip-rule="nonzero">
<path style="fill:none;stroke-width:10;stroke-linecap:butt;stroke-linejoin:miter;stroke:rgb(80.076599%,80.076599%,80.076599%);stroke-opacity:1;stroke-miterlimit:10;" d="M 2500 -450 L 0 800 M 2625 -387.5 L 125 862.5 M 2750 -325 L 250 925 M 2875 -262.5 L 375 987.5 M 3000 -200 L 500 1050 M 3125 -137.5 L 625 1112.5 M 3250 -75 L 750 1175 M 3375 -12.5 L 875 1237.5 M 3500 50 L 1000 1300 M 3625 112.5 L 1125 1362.5 M 3750 175 L 1250 1425 M 3875 237.5 L 1375 1487.5 M 4000 300 L 1500 1550 M 4125 362.5 L 1625 1612.5 M 4250 425 L 1750 1675 M 4375 487.5 L 1875 1737.5 M 4500 550 L 2000 1800 M 4625 612.5 L 2125 1862.5 M 4750 675 L 2250 1925 M 4875 737.5 L 2375 1987.5 M 5000 800 L 2500 2050 M 2500 -450 L 5000 800 M 2375 -387.5 L 4875 862.5 M 2250 -325 L 4750 925 M 2125 -262.5 L 4625 987.5 M 2000 -200 L 4500 1050 M 1875 -137.5 L 4375 1112.5 M 1750 -75 L 4250 1175 M 1625 -12.5 L 4125 1237.5 M 1500 50 L 4000 1300 M 1375 112.5 L 3875 1362.5 M 1250 175 L 3750 1425 M 1125 237.5 L 3625 1487.5 M 1000 300 L 3500 1550 M 875 362.5 L 3375 1612.5 M 750 425 L 3250 1675 M 625 487.5 L 3125 1737.5 M 500 550 L 3000 1800 M 375 612.5 L 2875 1862.5 M 250 675 L 2750 1925 M 125 737.5 L 2625 1987.5 M 0 800 L 2500 2050 M 2500 -450 L 5000 800 L 2500 2050 L 0 800 Z M 2500 -450 " transform="matrix(0.1,0,0,-0.1,0,160)"/>
</g>
<g clip-path="url(#clip35)" clip-rule="nonzero">
<path style="fill:none;stroke-width:10;stroke-linecap:butt;stroke-linejoin:miter;stroke:rgb(0%,0%,0%);stroke-opacity:1;stroke-miterlimit:10;" d="M 1750 425 L 3250 1175 M 3250 425 L 1750 1175 " transform="matrix(0.1,0,0,-0.1,0,160)"/>
</g>
<path style=" stroke:none;fill-rule:nonzero;fill:rgb(0%,0%,100%);fill-opacity:1;" d="M 221.058594 66.089844 L 218.992188 65.054688 L 217.066406 66.328125 L 223.207031 66.601562 L 219.300781 61.855469 L 219.441406 64.160156 L 221.507812 65.195312 L 221.058594 66.089844 "/>
<g clip-path="url(#clip36)" clip-rule="nonzero">
<path style="fill:none;stroke-width:10;stroke-linecap:butt;stroke-linejoin:miter;stroke:rgb(0%,0%,100%);stroke-opacity:1;stroke-miterlimit:10;" d="M -8387608.007812 8387608.007812 L -8387608.007812 5043568.007812 L -8189500 4096800 L -6651471.992188 3327786.015625 L -5402203.984375 2703151.992188 L -4387483.984375 2195791.992188 L -3563275 1783688.007812 L -2893808.984375 1448955 L -2350033.984375 1177066.992188 L -1908351.992188 956226.015625 L -1549593.984375 776846.992188 L -1258191.992188 631146.015625 L -1021500 512800 L -829246.992188 416673.007812 L -673088.007812 338593.984375 L -546248.007812 275173.984375 L -443221.992188 223661.015625 L -359538.984375 181818.984375 L -291566.992188 147833.007812 L -236356.015625 120228.007812 L -191511.992188 97805.898438 L -155086.992188 79593.203125 L -125500 64800 L -101468.007812 52784.101562 L -81948.515625 43024.296875 L -66093.515625 35096.796875 L -53215.195312 28657.617188 L -42754.804688 23427.382812 L -34258.398438 19179.21875 L -27357.109375 15728.515625 L -21751.484375 12925.703125 L -17198.28125 10649.21875 L -13500 8800 L -10496.015625 7298.007812 L -8056.054688 6078.046875 L -6074.179688 5087.109375 L -4464.414062 4282.1875 L -3156.875 3628.4375 L -2094.804688 3097.382812 L 37.695312 2031.132812 L 500 1800 L 875.507812 1612.265625 L 1428.242188 1335.898438 L 1629.453125 1235.273438 L 1792.890625 1153.554688 L 1925.664062 1087.1875 L 2033.476562 1033.242188 L 2121.054688 989.453125 L 2192.226562 953.90625 L 2250 925 L 2391.171875 854.414062 L 2411.601562 844.179688 L 2428.203125 835.898438 L 2441.679688 829.140625 L 2461.523438 819.21875 L 2468.75 815.625 L 2479.375 810.3125 L 2483.242188 808.359375 L 2486.40625 806.796875 L 2488.945312 805.507812 L 2491.015625 804.492188 L 2492.695312 803.632812 L 2494.0625 802.96875 L 2495.195312 802.421875 L 2496.09375 801.953125 L 2496.835938 801.601562 L 2497.421875 801.289062 L 2498.28125 800.859375 L 2498.632812 800.703125 L 2498.867188 800.546875 L 2499.101562 800.46875 L 2499.257812 800.351562 L 2499.414062 800.3125 L 2499.492188 800.234375 " transform="matrix(0.1,0,0,-0.1,0,160)"/>
</g>
<path style=" stroke:none;fill-rule:nonzero;fill:rgb(0%,0%,0%);fill-opacity:1;" d="M 202 55 C 202 53.894531 201.105469 53 200 53 C 198.894531 53 198 53.894531 198 55 C 198 56.105469 198.894531 57 200 57 C 201.105469 57 202 56.105469 202 55 "/>
<path style=" stroke:none;fill-rule:nonzero;fill:rgb(0%,0%,0%);fill-opacity:1;" d="M 239.5 73.75 C 239.5 72.644531 238.605469 71.75 237.5 71.75 C 236.394531 71.75 235.5 72.644531 235.5 73.75 C 235.5 74.855469 236.394531 75.75 237.5 75.75 C 238.605469 75.75 239.5 74.855469 239.5 73.75 "/>
<path style=" stroke:none;fill-rule:nonzero;fill:rgb(0%,0%,0%);fill-opacity:1;" d="M 248.875 78.4375 C 248.875 77.332031 247.980469 76.4375 246.875 76.4375 C 245.769531 76.4375 244.875 77.332031 244.875 78.4375 C 244.875 79.542969 245.769531 80.4375 246.875 80.4375 C 247.980469 80.4375 248.875 79.542969 248.875 78.4375 "/>
<path style=" stroke:none;fill-rule:nonzero;fill:rgb(0%,0%,100%);fill-opacity:1;" d="M 221.058594 66.089844 L 218.992188 65.054688 L 217.066406 66.328125 L 223.207031 66.601562 L 219.300781 61.855469 L 219.441406 64.160156 L 221.507812 65.195312 L 221.058594 66.089844 "/>
<g clip-path="url(#clip37)" clip-rule="nonzero">
<path style="fill:none;stroke-width:10;stroke-linecap:butt;stroke-linejoin:miter;stroke:rgb(0%,0%,100%);stroke-opacity:1;stroke-miterlimit:10;" d="M -8387608.007812 8387608.007812 L -8387608.007812 5043568.007812 L -8189500 4096800 L -6651471.992188 3327786.015625 L -5402203.984375 2703151.992188 L -4387483.984375 2195791.992188 L -3563275 1783688.007812 L -2893808.984375 1448955 L -2350033.984375 1177066.992188 L -1908351.992188 956226.015625 L -1549593.984375 776846.992188 L -1258191.992188 631146.015625 L -1021500 512800 L -829246.992188 416673.007812 L -673088.007812 338593.984375 L -546248.007812 275173.984375 L -443221.992188 223661.015625 L -359538.984375 181818.984375 L -291566.992188 147833.007812 L -236356.015625 120228.007812 L -191511.992188 97805.898438 L -155086.992188 79593.203125 L -125500 64800 L -101468.007812 52784.101562 L -81948.515625 43024.296875 L -66093.515625 35096.796875 L -53215.195312 28657.617188 L -42754.804688 23427.382812 L -34258.398438 19179.21875 L -27357.109375 15728.515625 L -21751.484375 12925.703125 L -17198.28125 10649.21875 L -13500 8800 L -10496.015625 7298.007812 L -8056.054688 6078.046875 L -6074.179688 5087.109375 L -4464.414062 4282.1875 L -3156.875 3628.4375 L -2094.804688 3097.382812 L 37.695312 2031.132812 L 500 1800 L 875.507812 1612.265625 L 1428.242188 1335.898438 L 1629.453125 1235.273438 L 1792.890625 1153.554688 L 1925.664062 1087.1875 L 2033.476562 1033.242188 L 2121.054688 989.453125 L 2192.226562 953.90625 L 2250 925 L 2391.171875 854.414062 L 2411.601562 844.179688 L 2428.203125 835.898438 L 2441.679688 829.140625 L 2461.523438 819.21875 L 2468.75 815.625 L 2479.375 810.3125 L 2483.242188 808.359375 L 2486.40625 806.796875 L 2488.945312 805.507812 L 2491.015625 804.492188 L 2492.695312 803.632812 L 2494.0625 802.96875 L 2495.195312 802.421875 L 2496.09375 801.953125 L 2496.835938 801.601562 L 2497.421875 801.289062 L 2498.28125 800.859375 L 2498.632812 800.703125 L 2498.867188 800.546875 L 2499.101562 800.46875 L 2499.257812 800.351562 L 2499.414062 800.3125 L 2499.492188 800.234375 " transform="matrix(0.1,0,0,-0.1,0,160)"/>
</g>
<path style=" stroke:none;fill-rule:nonzero;fill:rgb(0%,0%,0%);fill-opacity:1;" d="M 202 55 C 202 53.894531 201.105469 53 200 53 C 198.894531 53 198 53.894531 198 55 C 198 56.105469 198.894531 57 200 57 C 201.105469 57 202 56.105469 202 55 "/>
<path style=" stroke:none;fill-rule:nonzero;fill:rgb(0%,0%,0%);fill-opacity:1;" d="M 239.5 73.75 C 239.5 72.644531 238.605469 71.75 237.5 71.75 C 236.394531 71.75 235.5 72.644531 235.5 73.75 C 235.5 74.855469 236.394531 75.75 237.5 75.75 C 238.605469 75.75 239.5 74.855469 239.5 73.75 "/>
<path style=" stroke:none;fill-rule:nonzero;fill:rgb(0%,0%,0%);fill-opacity:1;" d="M 248.875 78.4375 C 248.875 77.332031 247.980469 76.4375 246.875 76.4375 C 245.769531 76.4375 244.875 77.332031 244.875 78.4375 C 244.875 79.542969 245.769531 80.4375 246.875 80.4375 C 247.980469 80.4375 248.875 79.542969 248.875 78.4375 "/>
<path style=" stroke:none;fill-rule:nonzero;fill:rgb(0%,0%,100%);fill-opacity:1;" d="M 278.941406 93.910156 L 281.007812 94.945312 L 282.933594 93.671875 L 276.792969 93.398438 L 280.699219 98.144531 L 280.558594 95.839844 L 278.492188 94.804688 L 278.941406 93.910156 "/>
<g clip-path="url(#clip38)" clip-rule="nonzero">
<path style="fill:none;stroke-width:10;stroke-linecap:butt;stroke-linejoin:miter;stroke:rgb(0%,0%,100%);stroke-opacity:1;stroke-miterlimit:10;" d="M 8387608.007812 -8387608.007812 L 8387608.007812 -5041968.007812 L 8194500 -4095200 L 6656471.992188 -3326186.015625 L 5407203.984375 -2701551.992188 L 4392483.984375 -2194191.992188 L 3568275 -1782088.007812 L 2898808.984375 -1447355 L 2355033.984375 -1175466.992188 L 1913351.992188 -954626.015625 L 1554593.984375 -775246.992188 L 1263191.992188 -629546.015625 L 1026500 -511200 L 834246.992188 -415073.007812 L 678088.007812 -336993.984375 L 551248.007812 -273573.984375 L 448221.992188 -222061.015625 L 364538.984375 -180218.984375 L 296566.992188 -146233.007812 L 241356.015625 -118628.007812 L 196511.992188 -96205.898438 L 160086.992188 -77993.203125 L 130500 -63200 L 106468.007812 -51184.101562 L 86948.515625 -41424.296875 L 71093.515625 -33496.796875 L 58215.195312 -27057.617188 L 47754.804688 -21827.382812 L 39258.398438 -17579.21875 L 32357.109375 -14128.515625 L 26751.484375 -11325.703125 L 22198.28125 -9049.140625 L 11074.21875 -3487.109375 L 9464.414062 -2682.1875 L 8156.875 -2028.4375 L 7094.804688 -1497.382812 L 4962.304688 -431.132812 L 4500 -200 L 4124.492188 -12.265625 L 3571.757812 264.101562 L 3370.546875 364.726562 L 3207.109375 446.445312 L 3074.335938 512.8125 L 2966.523438 566.757812 L 2878.945312 610.546875 L 2807.773438 646.09375 L 2750 675 L 2608.828125 745.585938 L 2588.398438 755.820312 L 2571.796875 764.101562 L 2558.320312 770.859375 L 2538.476562 780.78125 L 2531.25 784.375 L 2520.625 789.6875 L 2516.757812 791.640625 L 2513.59375 793.203125 L 2511.054688 794.492188 L 2508.984375 795.507812 L 2507.304688 796.367188 L 2505.9375 797.03125 L 2504.804688 797.578125 L 2503.90625 798.046875 L 2503.164062 798.398438 L 2502.578125 798.710938 L 2501.71875 799.140625 L 2501.367188 799.296875 L 2501.132812 799.453125 L 2500.898438 799.53125 L 2500.742188 799.648438 L 2500.585938 799.6875 L 2500.507812 799.765625 " transform="matrix(0.1,0,0,-0.1,0,160)"/>
</g>
<path style=" stroke:none;fill-rule:nonzero;fill:rgb(0%,0%,0%);fill-opacity:1;" d="M 302 105 C 302 103.894531 301.105469 103 300 103 C 298.894531 103 298 103.894531 298 105 C 298 106.105469 298.894531 107 300 107 C 301.105469 107 302 106.105469 302 105 "/>
<path style=" stroke:none;fill-rule:nonzero;fill:rgb(0%,0%,0%);fill-opacity:1;" d="M 264.5 86.25 C 264.5 85.144531 263.605469 84.25 262.5 84.25 C 261.394531 84.25 260.5 85.144531 260.5 86.25 C 260.5 87.355469 261.394531 88.25 262.5 88.25 C 263.605469 88.25 264.5 87.355469 264.5 86.25 "/>
<path style=" stroke:none;fill-rule:nonzero;fill:rgb(0%,0%,0%);fill-opacity:1;" d="M 255.125 81.5625 C 255.125 80.457031 254.230469 79.5625 253.125 79.5625 C 252.019531 79.5625 251.125 80.457031 251.125 81.5625 C 251.125 82.667969 252.019531 83.5625 253.125 83.5625 C 254.230469 83.5625 255.125 82.667969 255.125 81.5625 "/>
<path style=" stroke:none;fill-rule:nonzero;fill:rgb(0%,0%,100%);fill-opacity:1;" d="M 278.941406 93.910156 L 281.007812 94.945312 L 282.933594 93.671875 L 276.792969 93.398438 L 280.699219 98.144531 L 280.558594 95.839844 L 278.492188 94.804688 L 278.941406 93.910156 "/>
<g clip-path="url(#clip39)" clip-rule="nonzero">
<path style="fill:none;stroke-width:10;stroke-linecap:butt;stroke-linejoin:miter;stroke:rgb(0%,0%,100%);stroke-opacity:1;stroke-miterlimit:10;" d="M 8387608.007812 -8387608.007812 L 8387608.007812 -5041968.007812 L 8194500 -4095200 L 6656471.992188 -3326186.015625 L 5407203.984375 -2701551.992188 L 4392483.984375 -2194191.992188 L 3568275 -1782088.007812 L 2898808.984375 -1447355 L 2355033.984375 -1175466.992188 L 1913351.992188 -954626.015625 L 1554593.984375 -775246.992188 L 1263191.992188 -629546.015625 L 1026500 -511200 L 834246.992188 -415073.007812 L 678088.007812 -336993.984375 L 551248.007812 -273573.984375 L 448221.992188 -222061.015625 L 364538.984375 -180218.984375 L 296566.992188 -146233.007812 L 241356.015625 -118628.007812 L 196511.992188 -96205.898438 L 160086.992188 -77993.203125 L 130500 -63200 L 106468.007812 -51184.101562 L 86948.515625 -41424.296875 L 71093.515625 -33496.796875 L 58215.195312 -27057.617188 L 47754.804688 -21827.382812 L 39258.398438 -17579.21875 L 32357.109375 -14128.515625 L 26751.484375 -11325.703125 L 22198.28125 -9049.140625 L 11074.21875 -3487.109375 L 9464.414062 -2682.1875 L 8156.875 -2028.4375 L 7094.804688 -1497.382812 L 4962.304688 -431.132812 L 4500 -200 L 4124.492188 -12.265625 L 3571.757812 264.101562 L 3370.546875 364.726562 L 3207.109375 446.445312 L 3074.335938 512.8125 L 2966.523438 566.757812 L 2878.945312 610.546875 L 2807.773438 646.09375 L 2750 675 L 2608.828125 745.585938 L 2588.398438 755.820312 L 2571.796875 764.101562 L 2558.320312 770.859375 L 2538.476562 780.78125 L 2531.25 784.375 L 2520.625 789.6875 L 2516.757812 791.640625 L 2513.59375 793.203125 L 2511.054688 794.492188 L 2508.984375 795.507812 L 2507.304688 796.367188 L 2505.9375 797.03125 L 2504.804688 797.578125 L 2503.90625 798.046875 L 2503.164062 798.398438 L 2502.578125 798.710938 L 2501.71875 799.140625 L 2501.367188 799.296875 L 2501.132812 799.453125 L 2500.898438 799.53125 L 2500.742188 799.648438 L 2500.585938 799.6875 L 2500.507812 799.765625 " transform="matrix(0.1,0,0,-0.1,0,160)"/>
</g>
<path style=" stroke:none;fill-rule:nonzero;fill:rgb(0%,0%,0%);fill-opacity:1;" d="M 302 105 C 302 103.894531 301.105469 103 300 103 C 298.894531 103 298 103.894531 298 105 C 298 106.105469 298.894531 107 300 107 C 301.105469 107 302 106.105469 302 105 "/>
<path style=" stroke:none;fill-rule:nonzero;fill:rgb(0%,0%,0%);fill-opacity:1;" d="M 264.5 86.25 C 264.5 85.144531 263.605469 84.25 262.5 84.25 C 261.394531 84.25 260.5 85.144531 260.5 86.25 C 260.5 87.355469 261.394531 88.25 262.5 88.25 C 263.605469 88.25 264.5 87.355469 264.5 86.25 "/>
<path style=" stroke:none;fill-rule:nonzero;fill:rgb(0%,0%,0%);fill-opacity:1;" d="M 255.125 81.5625 C 255.125 80.457031 254.230469 79.5625 253.125 79.5625 C 252.019531 79.5625 251.125 80.457031 251.125 81.5625 C 251.125 82.667969 252.019531 83.5625 253.125 83.5625 C 254.230469 83.5625 255.125 82.667969 255.125 81.5625 "/>
<path style=" stroke:none;fill-rule:nonzero;fill:rgb(0%,0%,100%);fill-opacity:1;" d="M 246.058594 53.589844 L 243.992188 52.554688 L 242.066406 53.828125 L 248.207031 54.101562 L 244.300781 49.355469 L 244.441406 51.660156 L 246.507812 52.695312 L 246.058594 53.589844 "/>
<g clip-path="url(#clip40)" clip-rule="nonzero">
<path style="fill:none;stroke-width:10;stroke-linecap:butt;stroke-linejoin:miter;stroke:rgb(0%,0%,100%);stroke-opacity:1;stroke-miterlimit:10;" d="M -8387608.007812 8387608.007812 L -8387608.007812 5043693.007812 L -8189250 4096925 L -6651221.992188 3327911.015625 L -5401953.984375 2703276.992188 L -4387233.984375 2195916.992188 L -3563025 1783813.007812 L -2893558.984375 1449080 L -2349783.984375 1177191.992188 L -1908101.992188 956351.015625 L -1549343.984375 776971.992188 L -1257941.992188 631271.015625 L -1021250 512925 L -828996.992188 416798.007812 L -672838.007812 338718.984375 L -545998.007812 275298.984375 L -442971.992188 223786.015625 L -359288.984375 181943.984375 L -291316.992188 147958.007812 L -236106.015625 120353.007812 L -191261.992188 97930.898438 L -154836.992188 79718.203125 L -125250 64925 L -101218.007812 52909.101562 L -81698.515625 43149.296875 L -65843.515625 35221.796875 L -52965.195312 28782.617188 L -42504.804688 23552.382812 L -34008.398438 19304.21875 L -27107.109375 15853.515625 L -21501.484375 13050.703125 L -16948.28125 10774.21875 L -13250 8925 L -10246.015625 7423.007812 L -7806.054688 6203.046875 L -5824.179688 5212.109375 L -4214.414062 4407.1875 L -2906.875 3753.4375 L -1844.804688 3222.382812 L 287.695312 2156.132812 L 750 1925 L 1125.507812 1737.265625 L 1678.242188 1460.898438 L 1879.453125 1360.273438 L 2042.890625 1278.554688 L 2175.664062 1212.1875 L 2283.476562 1158.242188 L 2371.054688 1114.453125 L 2442.226562 1078.90625 L 2500 1050 L 2641.171875 979.414062 L 2661.601562 969.179688 L 2678.203125 960.898438 L 2691.679688 954.140625 L 2711.523438 944.21875 L 2718.75 940.625 L 2729.375 935.3125 L 2733.242188 933.359375 L 2736.40625 931.796875 L 2738.945312 930.507812 L 2741.015625 929.492188 L 2742.695312 928.632812 L 2744.0625 927.96875 L 2745.195312 927.421875 L 2746.09375 926.953125 L 2746.835938 926.601562 L 2747.421875 926.289062 L 2748.28125 925.859375 L 2748.632812 925.703125 L 2748.867188 925.546875 L 2749.101562 925.46875 L 2749.257812 925.351562 L 2749.414062 925.3125 L 2749.492188 925.234375 " transform="matrix(0.1,0,0,-0.1,0,160)"/>
</g>
<path style=" stroke:none;fill-rule:nonzero;fill:rgb(0%,0%,0%);fill-opacity:1;" d="M 227 42.5 C 227 41.394531 226.105469 40.5 225 40.5 C 223.894531 40.5 223 41.394531 223 42.5 C 223 43.605469 223.894531 44.5 225 44.5 C 226.105469 44.5 227 43.605469 227 42.5 "/>
<path style=" stroke:none;fill-rule:nonzero;fill:rgb(0%,0%,0%);fill-opacity:1;" d="M 264.5 61.25 C 264.5 60.144531 263.605469 59.25 262.5 59.25 C 261.394531 59.25 260.5 60.144531 260.5 61.25 C 260.5 62.355469 261.394531 63.25 262.5 63.25 C 263.605469 63.25 264.5 62.355469 264.5 61.25 "/>
<path style=" stroke:none;fill-rule:nonzero;fill:rgb(0%,0%,0%);fill-opacity:1;" d="M 273.875 65.9375 C 273.875 64.832031 272.980469 63.9375 271.875 63.9375 C 270.769531 63.9375 269.875 64.832031 269.875 65.9375 C 269.875 67.042969 270.769531 67.9375 271.875 67.9375 C 272.980469 67.9375 273.875 67.042969 273.875 65.9375 "/>
<path style=" stroke:none;fill-rule:nonzero;fill:rgb(0%,0%,100%);fill-opacity:1;" d="M 196.058594 78.589844 L 193.992188 77.554688 L 192.066406 78.828125 L 198.207031 79.101562 L 194.300781 74.355469 L 194.441406 76.660156 L 196.507812 77.695312 L 196.058594 78.589844 "/>
<g clip-path="url(#clip41)" clip-rule="nonzero">
<path style="fill:none;stroke-width:10;stroke-linecap:butt;stroke-linejoin:miter;stroke:rgb(0%,0%,100%);stroke-opacity:1;stroke-miterlimit:10;" d="M -8387608.007812 8387608.007812 L -8387608.007812 5043443.007812 L -8189750 4096675 L -6651721.992188 3327661.015625 L -5402453.984375 2703026.992188 L -4387733.984375 2195666.992188 L -3563525 1783563.007812 L -2894058.984375 1448830 L -2350283.984375 1176941.992188 L -1908601.992188 956101.015625 L -1549843.984375 776721.992188 L -1258441.992188 631021.015625 L -1021750 512675 L -829496.992188 416548.007812 L -673338.007812 338468.984375 L -546498.007812 275048.984375 L -443471.992188 223536.015625 L -359788.984375 181693.984375 L -291816.992188 147708.007812 L -236606.015625 120103.007812 L -191761.992188 97680.898438 L -155336.992188 79468.203125 L -125750 64675 L -101718.007812 52659.101562 L -82198.515625 42899.296875 L -66343.515625 34971.796875 L -53465.195312 28532.617188 L -43004.804688 23302.382812 L -34508.398438 19054.21875 L -27607.109375 15603.515625 L -22001.484375 12800.703125 L -17448.28125 10524.21875 L -13750 8675 L -10746.015625 7173.007812 L -8306.054688 5953.046875 L -6324.179688 4962.109375 L -4714.414062 4157.1875 L -3406.875 3503.4375 L -2344.804688 2972.382812 L -212.304688 1906.132812 L 250 1675 L 625.507812 1487.265625 L 1178.242188 1210.898438 L 1379.453125 1110.273438 L 1542.890625 1028.554688 L 1675.664062 962.1875 L 1783.476562 908.242188 L 1871.054688 864.453125 L 1942.226562 828.90625 L 2000 800 L 2141.171875 729.414062 L 2161.601562 719.179688 L 2178.203125 710.898438 L 2191.679688 704.140625 L 2211.523438 694.21875 L 2218.75 690.625 L 2229.375 685.3125 L 2233.242188 683.359375 L 2236.40625 681.796875 L 2238.945312 680.507812 L 2241.015625 679.492188 L 2242.695312 678.632812 L 2244.0625 677.96875 L 2245.195312 677.421875 L 2246.09375 676.953125 L 2246.835938 676.601562 L 2247.421875 676.289062 L 2248.28125 675.859375 L 2248.632812 675.703125 L 2248.867188 675.546875 L 2249.101562 675.46875 L 2249.257812 675.351562 L 2249.414062 675.3125 L 2249.492188 675.234375 " transform="matrix(0.1,0,0,-0.1,0,160)"/>
</g>
<g clip-path="url(#clip42)" clip-rule="nonzero">
<path style=" stroke:none;fill-rule:nonzero;fill:rgb(0%,0%,0%);fill-opacity:1;" d="M 177 67.5 C 177 66.394531 176.105469 65.5 175 65.5 C 173.894531 65.5 173 66.394531 173 67.5 C 173 68.605469 173.894531 69.5 175 69.5 C 176.105469 69.5 177 68.605469 177 67.5 "/>
</g>
<path style=" stroke:none;fill-rule:nonzero;fill:rgb(0%,0%,0%);fill-opacity:1;" d="M 214.5 86.25 C 214.5 85.144531 213.605469 84.25 212.5 84.25 C 211.394531 84.25 210.5 85.144531 210.5 86.25 C 210.5 87.355469 211.394531 88.25 212.5 88.25 C 213.605469 88.25 214.5 87.355469 214.5 86.25 "/>
<path style=" stroke:none;fill-rule:nonzero;fill:rgb(0%,0%,0%);fill-opacity:1;" d="M 223.875 90.9375 C 223.875 89.832031 222.980469 88.9375 221.875 88.9375 C 220.769531 88.9375 219.875 89.832031 219.875 90.9375 C 219.875 92.042969 220.769531 92.9375 221.875 92.9375 C 222.980469 92.9375 223.875 92.042969 223.875 90.9375 "/>
<path style=" stroke:none;fill-rule:nonzero;fill:rgb(0%,0%,100%);fill-opacity:1;" d="M 303.941406 81.410156 L 306.007812 82.445312 L 307.933594 81.171875 L 301.792969 80.898438 L 305.699219 85.644531 L 305.558594 83.339844 L 303.492188 82.304688 L 303.941406 81.410156 "/>
<g clip-path="url(#clip43)" clip-rule="nonzero">
<path style="fill:none;stroke-width:10;stroke-linecap:butt;stroke-linejoin:miter;stroke:rgb(0%,0%,100%);stroke-opacity:1;stroke-miterlimit:10;" d="M 8387608.007812 -8387608.007812 L 8387608.007812 -5041843.007812 L 8194750 -4095075 L 6656721.992188 -3326061.015625 L 5407453.984375 -2701426.992188 L 4392733.984375 -2194066.992188 L 3568525 -1781963.007812 L 2899058.984375 -1447230 L 2355283.984375 -1175341.992188 L 1913601.992188 -954501.015625 L 1554843.984375 -775121.992188 L 1263441.992188 -629421.015625 L 1026750 -511075 L 834496.992188 -414948.007812 L 678338.007812 -336868.984375 L 551498.007812 -273448.984375 L 448471.992188 -221936.015625 L 364788.984375 -180093.984375 L 296816.992188 -146108.007812 L 241606.015625 -118503.007812 L 196761.992188 -96080.898438 L 160336.992188 -77868.203125 L 130750 -63075 L 106718.007812 -51059.101562 L 87198.515625 -41299.296875 L 71343.515625 -33371.796875 L 58465.195312 -26932.617188 L 48004.804688 -21702.382812 L 39508.398438 -17454.21875 L 32607.109375 -14003.515625 L 27001.484375 -11200.703125 L 22448.28125 -8924.140625 L 11324.21875 -3362.109375 L 9714.414062 -2557.1875 L 8406.875 -1903.4375 L 7344.804688 -1372.382812 L 5212.304688 -306.132812 L 4750 -75 L 4374.492188 112.734375 L 3821.757812 389.101562 L 3620.546875 489.726562 L 3457.109375 571.445312 L 3324.335938 637.8125 L 3216.523438 691.757812 L 3128.945312 735.546875 L 3057.773438 771.09375 L 3000 800 L 2858.828125 870.585938 L 2838.398438 880.820312 L 2821.796875 889.101562 L 2808.320312 895.859375 L 2788.476562 905.78125 L 2781.25 909.375 L 2770.625 914.6875 L 2766.757812 916.640625 L 2763.59375 918.203125 L 2761.054688 919.492188 L 2758.984375 920.507812 L 2757.304688 921.367188 L 2755.9375 922.03125 L 2754.804688 922.578125 L 2753.90625 923.046875 L 2753.164062 923.398438 L 2752.578125 923.710938 L 2751.71875 924.140625 L 2751.367188 924.296875 L 2751.132812 924.453125 L 2750.898438 924.53125 L 2750.742188 924.648438 L 2750.585938 924.6875 L 2750.507812 924.765625 " transform="matrix(0.1,0,0,-0.1,0,160)"/>
</g>
<g clip-path="url(#clip44)" clip-rule="nonzero">
<path style=" stroke:none;fill-rule:nonzero;fill:rgb(0%,0%,0%);fill-opacity:1;" d="M 327 92.5 C 327 91.394531 326.105469 90.5 325 90.5 C 323.894531 90.5 323 91.394531 323 92.5 C 323 93.605469 323.894531 94.5 325 94.5 C 326.105469 94.5 327 93.605469 327 92.5 "/>
</g>
<path style=" stroke:none;fill-rule:nonzero;fill:rgb(0%,0%,0%);fill-opacity:1;" d="M 289.5 73.75 C 289.5 72.644531 288.605469 71.75 287.5 71.75 C 286.394531 71.75 285.5 72.644531 285.5 73.75 C 285.5 74.855469 286.394531 75.75 287.5 75.75 C 288.605469 75.75 289.5 74.855469 289.5 73.75 "/>
<path style=" stroke:none;fill-rule:nonzero;fill:rgb(0%,0%,0%);fill-opacity:1;" d="M 280.125 69.0625 C 280.125 67.957031 279.230469 67.0625 278.125 67.0625 C 277.019531 67.0625 276.125 67.957031 276.125 69.0625 C 276.125 70.167969 277.019531 71.0625 278.125 71.0625 C 279.230469 71.0625 280.125 70.167969 280.125 69.0625 "/>
<path style=" stroke:none;fill-rule:nonzero;fill:rgb(0%,0%,100%);fill-opacity:1;" d="M 253.941406 106.410156 L 256.007812 107.445312 L 257.933594 106.171875 L 251.792969 105.898438 L 255.699219 110.644531 L 255.558594 108.339844 L 253.492188 107.304688 L 253.941406 106.410156 "/>
<g clip-path="url(#clip45)" clip-rule="nonzero">
<path style="fill:none;stroke-width:10;stroke-linecap:butt;stroke-linejoin:miter;stroke:rgb(0%,0%,100%);stroke-opacity:1;stroke-miterlimit:10;" d="M 8387608.007812 -8387608.007812 L 8387608.007812 -5042093.007812 L 8194250 -4095325 L 6656221.992188 -3326311.015625 L 5406953.984375 -2701676.992188 L 4392233.984375 -2194316.992188 L 3568025 -1782213.007812 L 2898558.984375 -1447480 L 2354783.984375 -1175591.992188 L 1913101.992188 -954751.015625 L 1554343.984375 -775371.992188 L 1262941.992188 -629671.015625 L 1026250 -511325 L 833996.992188 -415198.007812 L 677838.007812 -337118.984375 L 550998.007812 -273698.984375 L 447971.992188 -222186.015625 L 364288.984375 -180343.984375 L 296316.992188 -146358.007812 L 241106.015625 -118753.007812 L 196261.992188 -96330.898438 L 159836.992188 -78118.203125 L 130250 -63325 L 106218.007812 -51309.101562 L 86698.515625 -41549.296875 L 70843.515625 -33621.796875 L 57965.195312 -27182.617188 L 47504.804688 -21952.382812 L 39008.398438 -17704.21875 L 32107.109375 -14253.515625 L 26501.484375 -11450.703125 L 21948.28125 -9174.140625 L 10824.21875 -3612.109375 L 9214.414062 -2807.1875 L 7906.875 -2153.4375 L 6844.804688 -1622.382812 L 4712.304688 -556.132812 L 4250 -325 L 3874.492188 -137.265625 L 3321.757812 139.101562 L 3120.546875 239.726562 L 2957.109375 321.445312 L 2824.335938 387.8125 L 2716.523438 441.757812 L 2628.945312 485.546875 L 2557.773438 521.09375 L 2500 550 L 2358.828125 620.585938 L 2338.398438 630.820312 L 2321.796875 639.101562 L 2308.320312 645.859375 L 2288.476562 655.78125 L 2281.25 659.375 L 2270.625 664.6875 L 2266.757812 666.640625 L 2263.59375 668.203125 L 2261.054688 669.492188 L 2258.984375 670.507812 L 2257.304688 671.367188 L 2255.9375 672.03125 L 2254.804688 672.578125 L 2253.90625 673.046875 L 2253.164062 673.398438 L 2252.578125 673.710938 L 2251.71875 674.140625 L 2251.367188 674.296875 L 2251.132812 674.453125 L 2250.898438 674.53125 L 2250.742188 674.648438 L 2250.585938 674.6875 L 2250.507812 674.765625 " transform="matrix(0.1,0,0,-0.1,0,160)"/>
</g>
<path style=" stroke:none;fill-rule:nonzero;fill:rgb(0%,0%,0%);fill-opacity:1;" d="M 277 117.5 C 277 116.394531 276.105469 115.5 275 115.5 C 273.894531 115.5 273 116.394531 273 117.5 C 273 118.605469 273.894531 119.5 275 119.5 C 276.105469 119.5 277 118.605469 277 117.5 "/>
<path style=" stroke:none;fill-rule:nonzero;fill:rgb(0%,0%,0%);fill-opacity:1;" d="M 239.5 98.75 C 239.5 97.644531 238.605469 96.75 237.5 96.75 C 236.394531 96.75 235.5 97.644531 235.5 98.75 C 235.5 99.855469 236.394531 100.75 237.5 100.75 C 238.605469 100.75 239.5 99.855469 239.5 98.75 "/>
<path style=" stroke:none;fill-rule:nonzero;fill:rgb(0%,0%,0%);fill-opacity:1;" d="M 230.125 94.0625 C 230.125 92.957031 229.230469 92.0625 228.125 92.0625 C 227.019531 92.0625 226.125 92.957031 226.125 94.0625 C 226.125 95.167969 227.019531 96.0625 228.125 96.0625 C 229.230469 96.0625 230.125 95.167969 230.125 94.0625 "/>
<path style=" stroke:none;fill-rule:nonzero;fill:rgb(0%,0%,100%);fill-opacity:1;" d="M 271.058594 41.089844 L 268.992188 40.054688 L 267.066406 41.328125 L 273.207031 41.601562 L 269.300781 36.855469 L 269.441406 39.160156 L 271.507812 40.195312 L 271.058594 41.089844 "/>
<g clip-path="url(#clip46)" clip-rule="nonzero">
<path style="fill:none;stroke-width:10;stroke-linecap:butt;stroke-linejoin:miter;stroke:rgb(0%,0%,100%);stroke-opacity:1;stroke-miterlimit:10;" d="M -8387608.007812 8387608.007812 L -8387608.007812 5043818.007812 L -8189000 4097050 L -6650971.992188 3328036.015625 L -5401703.984375 2703401.992188 L -4386983.984375 2196041.992188 L -3562775 1783938.007812 L -2893308.984375 1449205 L -2349533.984375 1177316.992188 L -1907851.992188 956476.015625 L -1549093.984375 777096.992188 L -1257691.992188 631396.015625 L -1021000 513050 L -828746.992188 416923.007812 L -672588.007812 338843.984375 L -545748.007812 275423.984375 L -442721.992188 223911.015625 L -359038.984375 182068.984375 L -291066.992188 148083.007812 L -235856.015625 120478.007812 L -191011.992188 98055.898438 L -154586.992188 79843.203125 L -125000 65050 L -100968.007812 53034.101562 L -81448.515625 43274.296875 L -65593.515625 35346.796875 L -52715.195312 28907.617188 L -42254.804688 23677.382812 L -33758.398438 19429.21875 L -26857.109375 15978.515625 L -21251.484375 13175.703125 L -16698.28125 10899.21875 L -13000 9050 L -9996.054688 7548.007812 L -7556.054688 6328.046875 L -5574.179688 5337.109375 L -3964.414062 4532.1875 L -2656.875 3878.4375 L -1594.804688 3347.382812 L 537.695312 2281.132812 L 1000 2050 L 1375.507812 1862.265625 L 1928.242188 1585.898438 L 2129.453125 1485.273438 L 2292.890625 1403.554688 L 2425.664062 1337.1875 L 2533.476562 1283.242188 L 2621.054688 1239.453125 L 2692.226562 1203.90625 L 2750 1175 L 2891.171875 1104.414062 L 2911.601562 1094.21875 L 2928.203125 1085.898438 L 2941.679688 1079.140625 L 2952.617188 1073.671875 L 2961.523438 1069.257812 L 2968.75 1065.625 L 2979.375 1060.3125 L 2983.242188 1058.398438 L 2986.40625 1056.796875 L 2988.945312 1055.507812 L 2991.015625 1054.492188 L 2992.695312 1053.632812 L 2994.0625 1052.96875 L 2995.195312 1052.421875 L 2996.09375 1051.953125 L 2996.835938 1051.601562 L 2997.421875 1051.289062 L 2998.28125 1050.859375 L 2998.632812 1050.703125 L 2998.867188 1050.546875 L 2999.101562 1050.46875 L 2999.257812 1050.351562 L 2999.414062 1050.3125 L 2999.492188 1050.234375 " transform="matrix(0.1,0,0,-0.1,0,160)"/>
</g>
<path style=" stroke:none;fill-rule:nonzero;fill:rgb(0%,0%,0%);fill-opacity:1;" d="M 252 30 C 252 28.894531 251.105469 28 250 28 C 248.894531 28 248 28.894531 248 30 C 248 31.105469 248.894531 32 250 32 C 251.105469 32 252 31.105469 252 30 "/>
<path style=" stroke:none;fill-rule:nonzero;fill:rgb(0%,0%,0%);fill-opacity:1;" d="M 289.5 48.75 C 289.5 47.644531 288.605469 46.75 287.5 46.75 C 286.394531 46.75 285.5 47.644531 285.5 48.75 C 285.5 49.855469 286.394531 50.75 287.5 50.75 C 288.605469 50.75 289.5 49.855469 289.5 48.75 "/>
<path style=" stroke:none;fill-rule:nonzero;fill:rgb(0%,0%,0%);fill-opacity:1;" d="M 298.875 53.4375 C 298.875 52.332031 297.980469 51.4375 296.875 51.4375 C 295.769531 51.4375 294.875 52.332031 294.875 53.4375 C 294.875 54.542969 295.769531 55.4375 296.875 55.4375 C 297.980469 55.4375 298.875 54.542969 298.875 53.4375 "/>
<g clip-path="url(#clip47)" clip-rule="nonzero">
<path style="fill:none;stroke-width:10;stroke-linecap:butt;stroke-linejoin:miter;stroke:rgb(0%,0%,100%);stroke-opacity:1;stroke-miterlimit:10;" d="M -8387608.007812 8387608.007812 L -8387608.007812 5043318.007812 L -8190000 4096550 L -6651971.992188 3327536.015625 L -5402703.984375 2702901.992188 L -4387983.984375 2195541.992188 L -3563775 1783438.007812 L -2894308.984375 1448705 L -2350533.984375 1176816.992188 L -1908851.992188 955976.015625 L -1550093.984375 776596.992188 L -1258691.992188 630896.015625 L -1022000 512550 L -829746.992188 416423.007812 L -673588.007812 338343.984375 L -546748.007812 274923.984375 L -443721.992188 223411.015625 L -360038.984375 181568.984375 L -292066.992188 147583.007812 L -236856.015625 119978.007812 L -192011.992188 97555.898438 L -155586.992188 79343.203125 L -126000 64550 L -101968.007812 52534.101562 L -82448.515625 42774.296875 L -66593.515625 34846.796875 L -53715.195312 28407.617188 L -43254.804688 23177.382812 L -34758.398438 18929.21875 L -27857.109375 15478.515625 L -22251.484375 12675.703125 L -17698.28125 10399.21875 L -14000 8550 L -10996.015625 7048.007812 L -8556.054688 5828.046875 L -6574.179688 4837.109375 L -4964.414062 4032.1875 L -3656.875 3378.4375 L -2594.804688 2847.382812 L -462.304688 1781.132812 L 0 1550 L 375.507812 1362.265625 L 928.242188 1085.898438 L 1129.453125 985.273438 L 1292.890625 903.554688 L 1425.664062 837.1875 L 1533.476562 783.242188 L 1621.054688 739.453125 L 1692.226562 703.90625 L 1750 675 L 1891.171875 604.414062 L 1911.601562 594.179688 L 1928.203125 585.898438 L 1941.679688 579.140625 L 1961.523438 569.21875 L 1968.75 565.625 L 1979.375 560.3125 L 1983.242188 558.359375 L 1986.40625 556.796875 L 1988.945312 555.507812 L 1991.015625 554.492188 L 1992.695312 553.632812 L 1994.0625 552.96875 L 1995.195312 552.421875 L 1996.09375 551.953125 L 1996.835938 551.601562 L 1997.421875 551.289062 L 1998.28125 550.859375 L 1998.632812 550.703125 L 1998.867188 550.546875 L 1999.101562 550.46875 L 1999.257812 550.351562 L 1999.414062 550.3125 L 1999.492188 550.234375 " transform="matrix(0.1,0,0,-0.1,0,160)"/>
</g>
<path style=" stroke:none;fill-rule:nonzero;fill:rgb(0%,0%,0%);fill-opacity:1;" d="M 189.5 98.75 C 189.5 97.644531 188.605469 96.75 187.5 96.75 C 186.394531 96.75 185.5 97.644531 185.5 98.75 C 185.5 99.855469 186.394531 100.75 187.5 100.75 C 188.605469 100.75 189.5 99.855469 189.5 98.75 "/>
<path style=" stroke:none;fill-rule:nonzero;fill:rgb(0%,0%,0%);fill-opacity:1;" d="M 198.875 103.4375 C 198.875 102.332031 197.980469 101.4375 196.875 101.4375 C 195.769531 101.4375 194.875 102.332031 194.875 103.4375 C 194.875 104.542969 195.769531 105.4375 196.875 105.4375 C 197.980469 105.4375 198.875 104.542969 198.875 103.4375 "/>
<g clip-path="url(#clip48)" clip-rule="nonzero">
<path style="fill:none;stroke-width:10;stroke-linecap:butt;stroke-linejoin:miter;stroke:rgb(0%,0%,100%);stroke-opacity:1;stroke-miterlimit:10;" d="M 8387608.007812 -8387608.007812 L 8387608.007812 -5041718.007812 L 8195000 -4094950 L 6656971.992188 -3325936.015625 L 5407703.984375 -2701301.992188 L 4392983.984375 -2193941.992188 L 3568775 -1781838.007812 L 2899308.984375 -1447105 L 2355533.984375 -1175216.992188 L 1913851.992188 -954376.015625 L 1555093.984375 -774996.992188 L 1263691.992188 -629296.015625 L 1027000 -510950 L 834746.992188 -414823.007812 L 678588.007812 -336743.984375 L 551748.007812 -273323.984375 L 448721.992188 -221811.015625 L 365038.984375 -179968.984375 L 297066.992188 -145983.007812 L 241856.015625 -118378.007812 L 197011.992188 -95955.898438 L 160586.992188 -77743.203125 L 131000 -62950 L 106968.007812 -50934.101562 L 87448.515625 -41174.296875 L 71593.515625 -33246.796875 L 58715.195312 -26807.617188 L 48254.804688 -21577.382812 L 39758.398438 -17329.21875 L 32857.109375 -13878.515625 L 27251.484375 -11075.703125 L 22698.28125 -8799.140625 L 11574.21875 -3237.109375 L 9964.414062 -2432.1875 L 8656.875 -1778.4375 L 7594.804688 -1247.382812 L 5462.304688 -181.132812 L 5000 50 L 4624.492188 237.734375 L 4071.757812 514.101562 L 3870.546875 614.726562 L 3707.109375 696.445312 L 3574.335938 762.8125 L 3466.523438 816.757812 L 3378.945312 860.546875 L 3307.773438 896.09375 L 3250 925 L 3108.828125 995.585938 L 3088.398438 1005.78125 L 3071.796875 1014.101562 L 3058.320312 1020.859375 L 3047.382812 1026.328125 L 3038.476562 1030.742188 L 3031.25 1034.375 L 3020.625 1039.6875 L 3016.757812 1041.640625 L 3013.59375 1043.203125 L 3011.054688 1044.492188 L 3008.984375 1045.507812 L 3007.304688 1046.367188 L 3005.9375 1047.03125 L 3004.804688 1047.578125 L 3003.90625 1048.046875 L 3003.164062 1048.398438 L 3002.578125 1048.710938 L 3001.71875 1049.140625 L 3001.367188 1049.296875 L 3001.132812 1049.453125 L 3000.898438 1049.53125 L 3000.742188 1049.648438 L 3000.585938 1049.6875 L 3000.507812 1049.765625 " transform="matrix(0.1,0,0,-0.1,0,160)"/>
</g>
<path style=" stroke:none;fill-rule:nonzero;fill:rgb(0%,0%,0%);fill-opacity:1;" d="M 314.5 61.25 C 314.5 60.144531 313.605469 59.25 312.5 59.25 C 311.394531 59.25 310.5 60.144531 310.5 61.25 C 310.5 62.355469 311.394531 63.25 312.5 63.25 C 313.605469 63.25 314.5 62.355469 314.5 61.25 "/>
<path style=" stroke:none;fill-rule:nonzero;fill:rgb(0%,0%,0%);fill-opacity:1;" d="M 305.125 56.5625 C 305.125 55.457031 304.230469 54.5625 303.125 54.5625 C 302.019531 54.5625 301.125 55.457031 301.125 56.5625 C 301.125 57.667969 302.019531 58.5625 303.125 58.5625 C 304.230469 58.5625 305.125 57.667969 305.125 56.5625 "/>
<path style=" stroke:none;fill-rule:nonzero;fill:rgb(0%,0%,100%);fill-opacity:1;" d="M 228.941406 118.910156 L 231.007812 119.945312 L 232.933594 118.671875 L 226.792969 118.398438 L 230.699219 123.144531 L 230.558594 120.839844 L 228.492188 119.804688 L 228.941406 118.910156 "/>
<g clip-path="url(#clip49)" clip-rule="nonzero">
<path style="fill:none;stroke-width:10;stroke-linecap:butt;stroke-linejoin:miter;stroke:rgb(0%,0%,100%);stroke-opacity:1;stroke-miterlimit:10;" d="M 8387608.007812 -8387608.007812 L 8387608.007812 -5042218.007812 L 8194000 -4095450 L 6655971.992188 -3326436.015625 L 5406703.984375 -2701801.992188 L 4391983.984375 -2194441.992188 L 3567775 -1782338.007812 L 2898308.984375 -1447605 L 2354533.984375 -1175716.992188 L 1912851.992188 -954876.015625 L 1554093.984375 -775496.992188 L 1262691.992188 -629796.015625 L 1026000 -511450 L 833746.992188 -415323.007812 L 677588.007812 -337243.984375 L 550748.007812 -273823.984375 L 447721.992188 -222311.015625 L 364038.984375 -180468.984375 L 296066.992188 -146483.007812 L 240856.015625 -118878.007812 L 196011.992188 -96455.898438 L 159586.992188 -78243.203125 L 130000 -63450 L 105968.007812 -51434.101562 L 86448.515625 -41674.296875 L 70593.515625 -33746.796875 L 57715.195312 -27307.617188 L 47254.804688 -22077.382812 L 38758.398438 -17829.21875 L 31857.109375 -14378.515625 L 26251.484375 -11575.703125 L 21698.28125 -9299.140625 L 10574.21875 -3737.109375 L 8964.414062 -2932.1875 L 7656.875 -2278.4375 L 6594.804688 -1747.382812 L 4462.304688 -681.132812 L 4000 -450 L 3624.492188 -262.265625 L 3071.757812 14.101562 L 2870.546875 114.726562 L 2707.109375 196.445312 L 2574.335938 262.8125 L 2466.523438 316.757812 L 2378.945312 360.546875 L 2307.773438 396.09375 L 2250 425 L 2108.828125 495.585938 L 2088.398438 505.820312 L 2071.796875 514.101562 L 2058.320312 520.859375 L 2038.476562 530.78125 L 2031.25 534.375 L 2020.625 539.6875 L 2016.757812 541.640625 L 2013.59375 543.203125 L 2011.054688 544.492188 L 2008.984375 545.507812 L 2007.304688 546.367188 L 2005.9375 547.03125 L 2004.804688 547.578125 L 2003.90625 548.046875 L 2003.164062 548.398438 L 2002.578125 548.710938 L 2001.71875 549.140625 L 2001.367188 549.296875 L 2001.132812 549.453125 L 2000.898438 549.53125 L 2000.742188 549.648438 L 2000.585938 549.6875 L 2000.507812 549.765625 " transform="matrix(0.1,0,0,-0.1,0,160)"/>
</g>
<path style=" stroke:none;fill-rule:nonzero;fill:rgb(0%,0%,0%);fill-opacity:1;" d="M 252 130 C 252 128.894531 251.105469 128 250 128 C 248.894531 128 248 128.894531 248 130 C 248 131.105469 248.894531 132 250 132 C 251.105469 132 252 131.105469 252 130 "/>
<path style=" stroke:none;fill-rule:nonzero;fill:rgb(0%,0%,0%);fill-opacity:1;" d="M 214.5 111.25 C 214.5 110.144531 213.605469 109.25 212.5 109.25 C 211.394531 109.25 210.5 110.144531 210.5 111.25 C 210.5 112.355469 211.394531 113.25 212.5 113.25 C 213.605469 113.25 214.5 112.355469 214.5 111.25 "/>
<path style=" stroke:none;fill-rule:nonzero;fill:rgb(0%,0%,0%);fill-opacity:1;" d="M 205.125 106.5625 C 205.125 105.457031 204.230469 104.5625 203.125 104.5625 C 202.019531 104.5625 201.125 105.457031 201.125 106.5625 C 201.125 107.667969 202.019531 108.5625 203.125 108.5625 C 204.230469 108.5625 205.125 107.667969 205.125 106.5625 "/>
<path style=" stroke:none;fill-rule:nonzero;fill:rgb(0%,0%,100%);fill-opacity:1;" d="M 296.058594 28.589844 L 293.992188 27.554688 L 292.066406 28.828125 L 298.207031 29.101562 L 294.300781 24.355469 L 294.441406 26.660156 L 296.507812 27.695312 L 296.058594 28.589844 "/>
<g clip-path="url(#clip50)" clip-rule="nonzero">
<path style="fill:none;stroke-width:10;stroke-linecap:butt;stroke-linejoin:miter;stroke:rgb(0%,0%,100%);stroke-opacity:1;stroke-miterlimit:10;" d="M -8387608.007812 8387608.007812 L -8387608.007812 5043943.007812 L -8188750 4097175 L -6650721.992188 3328161.015625 L -5401453.984375 2703526.992188 L -4386733.984375 2196166.992188 L -3562525 1784063.007812 L -2893058.984375 1449330 L -2349283.984375 1177441.992188 L -1907601.992188 956601.015625 L -1548843.984375 777221.992188 L -1257441.992188 631521.015625 L -1020750 513175 L -828496.992188 417048.007812 L -672338.007812 338968.984375 L -545498.007812 275548.984375 L -442471.992188 224036.015625 L -358788.984375 182193.984375 L -290816.992188 148208.007812 L -235606.015625 120603.007812 L -190761.992188 98180.898438 L -154336.992188 79968.203125 L -124750 65175 L -100718.007812 53159.101562 L -81198.515625 43399.296875 L -65343.515625 35471.796875 L -52465.195312 29032.617188 L -42004.804688 23802.382812 L -33508.398438 19554.21875 L -26607.109375 16103.515625 L -21001.484375 13300.703125 L -16448.28125 11024.21875 L -12750 9175 L -9746.054688 7673.007812 L -7306.054688 6453.046875 L -5324.179688 5462.109375 L -3714.414062 4657.1875 L -2406.875 4003.4375 L -1344.804688 3472.382812 L 787.695312 2406.132812 L 1250 2175 L 1625.507812 1987.265625 L 2178.242188 1710.898438 L 2379.453125 1610.273438 L 2542.890625 1528.554688 L 2675.664062 1462.1875 L 2783.476562 1408.242188 L 2871.054688 1364.453125 L 2942.226562 1328.90625 L 3000 1300 L 3141.171875 1229.414062 L 3161.601562 1219.21875 L 3178.203125 1210.898438 L 3191.679688 1204.140625 L 3202.617188 1198.671875 L 3211.523438 1194.257812 L 3218.75 1190.625 L 3229.375 1185.3125 L 3233.242188 1183.398438 L 3236.40625 1181.796875 L 3238.945312 1180.507812 L 3241.015625 1179.492188 L 3242.695312 1178.632812 L 3244.0625 1177.96875 L 3245.195312 1177.421875 L 3246.09375 1176.953125 L 3246.835938 1176.601562 L 3247.421875 1176.289062 L 3248.28125 1175.859375 L 3248.632812 1175.703125 L 3248.867188 1175.546875 L 3249.101562 1175.46875 L 3249.257812 1175.351562 L 3249.414062 1175.3125 L 3249.492188 1175.234375 " transform="matrix(0.1,0,0,-0.1,0,160)"/>
</g>
<path style=" stroke:none;fill-rule:nonzero;fill:rgb(0%,0%,0%);fill-opacity:1;" d="M 277 17.5 C 277 16.394531 276.105469 15.5 275 15.5 C 273.894531 15.5 273 16.394531 273 17.5 C 273 18.605469 273.894531 19.5 275 19.5 C 276.105469 19.5 277 18.605469 277 17.5 "/>
<path style=" stroke:none;fill-rule:nonzero;fill:rgb(0%,0%,0%);fill-opacity:1;" d="M 314.5 36.25 C 314.5 35.144531 313.605469 34.25 312.5 34.25 C 311.394531 34.25 310.5 35.144531 310.5 36.25 C 310.5 37.355469 311.394531 38.25 312.5 38.25 C 313.605469 38.25 314.5 37.355469 314.5 36.25 "/>
<path style=" stroke:none;fill-rule:nonzero;fill:rgb(0%,0%,0%);fill-opacity:1;" d="M 323.875 40.9375 C 323.875 39.832031 322.980469 38.9375 321.875 38.9375 C 320.769531 38.9375 319.875 39.832031 319.875 40.9375 C 319.875 42.042969 320.769531 42.9375 321.875 42.9375 C 322.980469 42.9375 323.875 42.042969 323.875 40.9375 "/>
<g clip-path="url(#clip51)" clip-rule="nonzero">
<path style="fill:none;stroke-width:10;stroke-linecap:butt;stroke-linejoin:miter;stroke:rgb(0%,0%,100%);stroke-opacity:1;stroke-miterlimit:10;" d="M -8387608.007812 8387608.007812 L -8387608.007812 5043193.007812 L -8190250 4096425 L -6652221.992188 3327411.015625 L -5402953.984375 2702776.992188 L -4388233.984375 2195416.992188 L -3564025 1783313.007812 L -2894558.984375 1448580 L -2350783.984375 1176691.992188 L -1909101.992188 955851.015625 L -1550343.984375 776471.992188 L -1258941.992188 630771.015625 L -1022250 512425 L -829996.992188 416298.007812 L -673838.007812 338218.984375 L -546998.007812 274798.984375 L -443971.992188 223286.015625 L -360288.984375 181443.984375 L -292316.992188 147458.007812 L -237106.015625 119853.007812 L -192261.992188 97430.898438 L -155836.992188 79218.203125 L -126250 64425 L -102218.007812 52409.101562 L -82698.515625 42649.296875 L -66843.515625 34721.796875 L -53965.195312 28282.617188 L -43504.804688 23052.382812 L -35008.398438 18804.21875 L -28107.109375 15353.515625 L -22501.484375 12550.703125 L -17948.28125 10274.21875 L -14250 8425 L -11246.015625 6923.007812 L -8806.054688 5703.046875 L -6824.179688 4712.109375 L -5214.414062 3907.1875 L -3906.875 3253.4375 L -2844.804688 2722.382812 L -712.304688 1656.132812 L -250 1425 L 125.507812 1237.265625 L 678.242188 960.898438 L 879.453125 860.273438 L 1042.890625 778.554688 L 1175.664062 712.1875 L 1283.476562 658.242188 L 1371.054688 614.453125 L 1442.226562 578.90625 L 1500 550 L 1641.171875 479.414062 L 1661.601562 469.179688 L 1678.203125 460.898438 L 1691.679688 454.140625 L 1711.523438 444.21875 L 1718.75 440.625 L 1729.375 435.3125 L 1733.242188 433.359375 L 1736.40625 431.796875 L 1738.945312 430.507812 L 1741.015625 429.492188 L 1742.695312 428.632812 L 1744.0625 427.96875 L 1745.195312 427.421875 L 1746.09375 426.953125 L 1746.835938 426.601562 L 1747.421875 426.289062 L 1748.28125 425.859375 L 1748.632812 425.703125 L 1748.867188 425.546875 L 1749.101562 425.46875 L 1749.257812 425.351562 L 1749.414062 425.3125 L 1749.492188 425.234375 " transform="matrix(0.1,0,0,-0.1,0,160)"/>
</g>
<g clip-path="url(#clip52)" clip-rule="nonzero">
<path style="fill:none;stroke-width:10;stroke-linecap:butt;stroke-linejoin:miter;stroke:rgb(0%,0%,100%);stroke-opacity:1;stroke-miterlimit:10;" d="M 8387608.007812 -8387608.007812 L 8387608.007812 -5041593.007812 L 8195250 -4094825 L 6657221.992188 -3325811.015625 L 5407953.984375 -2701176.992188 L 4393233.984375 -2193816.992188 L 3569025 -1781713.007812 L 2899558.984375 -1446980 L 2355783.984375 -1175091.992188 L 1914101.992188 -954251.015625 L 1555343.984375 -774871.992188 L 1263941.992188 -629171.015625 L 1027250 -510825 L 834996.992188 -414698.007812 L 678838.007812 -336618.984375 L 551998.007812 -273198.984375 L 448971.992188 -221686.015625 L 365288.984375 -179843.984375 L 297316.992188 -145858.007812 L 242106.015625 -118253.007812 L 197261.992188 -95830.898438 L 160836.992188 -77618.203125 L 131250 -62825 L 107218.007812 -50809.101562 L 87698.515625 -41049.296875 L 71843.515625 -33121.796875 L 58965.195312 -26682.617188 L 48504.804688 -21452.382812 L 40008.398438 -17204.21875 L 33107.109375 -13753.515625 L 27501.484375 -10950.703125 L 22948.28125 -8674.140625 L 11824.21875 -3112.109375 L 10214.414062 -2307.1875 L 8906.875 -1653.4375 L 7844.804688 -1122.382812 L 5712.304688 -56.132812 L 5250 175 L 4874.492188 362.734375 L 4321.757812 639.101562 L 4120.546875 739.726562 L 3957.109375 821.445312 L 3824.335938 887.8125 L 3716.523438 941.757812 L 3628.945312 985.546875 L 3557.773438 1021.09375 L 3500 1050 L 3358.828125 1120.585938 L 3338.398438 1130.78125 L 3321.796875 1139.101562 L 3308.320312 1145.859375 L 3297.382812 1151.328125 L 3288.476562 1155.742188 L 3281.25 1159.375 L 3270.625 1164.6875 L 3266.757812 1166.640625 L 3263.59375 1168.203125 L 3261.054688 1169.492188 L 3258.984375 1170.507812 L 3257.304688 1171.367188 L 3255.9375 1172.03125 L 3254.804688 1172.578125 L 3253.90625 1173.046875 L 3253.164062 1173.398438 L 3252.578125 1173.710938 L 3251.71875 1174.140625 L 3251.367188 1174.296875 L 3251.132812 1174.453125 L 3250.898438 1174.53125 L 3250.742188 1174.648438 L 3250.585938 1174.6875 L 3250.507812 1174.765625 " transform="matrix(0.1,0,0,-0.1,0,160)"/>
</g>
<path style=" stroke:none;fill-rule:nonzero;fill:rgb(0%,0%,100%);fill-opacity:1;" d="M 203.941406 131.410156 L 206.007812 132.445312 L 207.933594 131.171875 L 201.792969 130.898438 L 205.699219 135.644531 L 205.558594 133.339844 L 203.492188 132.304688 L 203.941406 131.410156 "/>
<g clip-path="url(#clip53)" clip-rule="nonzero">
<path style="fill:none;stroke-width:10;stroke-linecap:butt;stroke-linejoin:miter;stroke:rgb(0%,0%,100%);stroke-opacity:1;stroke-miterlimit:10;" d="M 8387608.007812 -8387608.007812 L 8387608.007812 -5042343.007812 L 8193750 -4095575 L 6655721.992188 -3326561.015625 L 5406453.984375 -2701926.992188 L 4391733.984375 -2194566.992188 L 3567525 -1782463.007812 L 2898058.984375 -1447730 L 2354283.984375 -1175841.992188 L 1912601.992188 -955001.015625 L 1553843.984375 -775621.992188 L 1262441.992188 -629921.015625 L 1025750 -511575 L 833496.992188 -415448.007812 L 677338.007812 -337368.984375 L 550498.007812 -273948.984375 L 447471.992188 -222436.015625 L 363788.984375 -180593.984375 L 295816.992188 -146608.007812 L 240606.015625 -119003.007812 L 195761.992188 -96580.898438 L 159336.992188 -78368.203125 L 129750 -63575 L 105718.007812 -51559.101562 L 86198.515625 -41799.296875 L 70343.515625 -33871.796875 L 57465.195312 -27432.617188 L 47004.804688 -22202.382812 L 38508.398438 -17954.21875 L 31607.109375 -14503.515625 L 26001.484375 -11700.703125 L 21448.28125 -9424.140625 L 10324.21875 -3862.109375 L 8714.414062 -3057.1875 L 7406.875 -2403.4375 L 6344.804688 -1872.382812 L 4212.304688 -806.132812 L 3750 -575 L 3374.492188 -387.265625 L 2821.757812 -110.898438 L 2620.546875 -10.273438 L 2457.109375 71.445312 L 2324.335938 137.8125 L 2216.523438 191.757812 L 2128.945312 235.546875 L 2057.773438 271.09375 L 2000 300 L 1858.828125 370.585938 L 1838.398438 380.820312 L 1821.796875 389.101562 L 1808.320312 395.859375 L 1788.476562 405.78125 L 1781.25 409.375 L 1770.625 414.6875 L 1766.757812 416.640625 L 1763.59375 418.203125 L 1761.054688 419.492188 L 1758.984375 420.507812 L 1757.304688 421.367188 L 1755.9375 422.03125 L 1754.804688 422.578125 L 1753.90625 423.046875 L 1753.164062 423.398438 L 1752.578125 423.710938 L 1751.71875 424.140625 L 1751.367188 424.296875 L 1751.132812 424.453125 L 1750.898438 424.53125 L 1750.742188 424.648438 L 1750.585938 424.6875 L 1750.507812 424.765625 " transform="matrix(0.1,0,0,-0.1,0,160)"/>
</g>
<path style=" stroke:none;fill-rule:nonzero;fill:rgb(0%,0%,0%);fill-opacity:1;" d="M 227 142.5 C 227 141.394531 226.105469 140.5 225 140.5 C 223.894531 140.5 223 141.394531 223 142.5 C 223 143.605469 223.894531 144.5 225 144.5 C 226.105469 144.5 227 143.605469 227 142.5 "/>
<path style=" stroke:none;fill-rule:nonzero;fill:rgb(0%,0%,0%);fill-opacity:1;" d="M 189.5 123.75 C 189.5 122.644531 188.605469 121.75 187.5 121.75 C 186.394531 121.75 185.5 122.644531 185.5 123.75 C 185.5 124.855469 186.394531 125.75 187.5 125.75 C 188.605469 125.75 189.5 124.855469 189.5 123.75 "/>
<path style=" stroke:none;fill-rule:nonzero;fill:rgb(0%,0%,0%);fill-opacity:1;" d="M 180.125 119.0625 C 180.125 117.957031 179.230469 117.0625 178.125 117.0625 C 177.019531 117.0625 176.125 117.957031 176.125 119.0625 C 176.125 120.167969 177.019531 121.0625 178.125 121.0625 C 179.230469 121.0625 180.125 120.167969 180.125 119.0625 "/>
</g>
</svg>
