<?xml version="1.0" encoding="UTF-8"?>
<svg xmlns="http://www.w3.org/2000/svg" xmlns:xlink="http://www.w3.org/1999/xlink" width="120pt" height="110pt" viewBox="0 0 120 110" version="1.1">
<g id="surface1">
<path style=" stroke:none;fill-rule:nonzero;fill:rgb(77.929688%,77.929688%,77.929688%);fill-opacity:1;" d="M 12.03125 79.40625 L 62.03125 91.40625 L 60 55 "/>
<path style="fill:none;stroke-width:10;stroke-linecap:round;stroke-linejoin:round;stroke:rgb(59.959412%,59.959412%,59.959412%);stroke-opacity:1;stroke-miterlimit:10;" d="M 120.3125 305.9375 L 620.3125 185.9375 L 600 550 Z M 120.3125 305.9375 " transform="matrix(0.1,0,0,-0.1,0,110)"/>
<path style="fill-rule:nonzero;fill:rgb(69.921875%,69.921875%,69.921875%);fill-opacity:1;stroke-width:10;stroke-linecap:round;stroke-linejoin:round;stroke:rgb(59.959412%,59.959412%,59.959412%);stroke-opacity:1;stroke-miterlimit:10;" d="M 656.25 688.75 L 1156.25 848.75 L 543.75 411.25 L 43.75 251.25 Z M 656.25 688.75 " transform="matrix(0.1,0,0,-0.1,0,110)"/>
<path style=" stroke:none;fill-rule:nonzero;fill:rgb(77.929688%,77.929688%,77.929688%);fill-opacity:1;" d="M 57.96875 18.59375 L 12.03125 79.40625 L 60 55 "/>
<path style="fill:none;stroke-width:10;stroke-linecap:round;stroke-linejoin:round;stroke:rgb(59.959412%,59.959412%,59.959412%);stroke-opacity:1;stroke-miterlimit:10;" d="M 579.6875 914.0625 L 120.3125 305.9375 L 600 550 Z M 579.6875 914.0625 " transform="matrix(0.1,0,0,-0.1,0,110)"/>
<path style="fill-rule:nonzero;fill:rgb(84.959412%,84.959412%,84.959412%);fill-opacity:1;stroke-width:10;stroke-linecap:round;stroke-linejoin:round;stroke:rgb(69.921875%,69.921875%,69.921875%);stroke-opacity:1;stroke-miterlimit:10;" d="M 656.25 968.75 L 1156.25 568.75 L 543.75 131.25 L 43.75 531.25 Z M 656.25 968.75 " transform="matrix(0.1,0,0,-0.1,0,110)"/>
<path style=" stroke:none;fill-rule:nonzero;fill:rgb(77.929688%,77.929688%,77.929688%);fill-opacity:1;" d="M 107.96875 30.59375 L 62.03125 91.40625 L 60 55 "/>
<path style="fill:none;stroke-width:10;stroke-linecap:round;stroke-linejoin:round;stroke:rgb(59.959412%,59.959412%,59.959412%);stroke-opacity:1;stroke-miterlimit:10;" d="M 1079.6875 794.0625 L 620.3125 185.9375 L 600 550 Z M 1079.6875 794.0625 " transform="matrix(0.1,0,0,-0.1,0,110)"/>
<path style="fill-rule:nonzero;fill:rgb(69.921875%,69.921875%,69.921875%);fill-opacity:1;stroke-width:10;stroke-linecap:round;stroke-linejoin:round;stroke:rgb(59.959412%,59.959412%,59.959412%);stroke-opacity:1;stroke-miterlimit:10;" d="M 906.25 768.75 L 1156.25 848.75 L 543.75 411.25 L 293.75 331.25 Z M 906.25 768.75 " transform="matrix(0.1,0,0,-0.1,0,110)"/>
<path style=" stroke:none;fill-rule:nonzero;fill:rgb(77.929688%,77.929688%,77.929688%);fill-opacity:1;" d="M 57.96875 18.59375 L 107.96875 30.59375 L 60 55 "/>
<path style="fill:none;stroke-width:10;stroke-linecap:round;stroke-linejoin:round;stroke:rgb(59.959412%,59.959412%,59.959412%);stroke-opacity:1;stroke-miterlimit:10;" d="M 579.6875 914.0625 L 1079.6875 794.0625 L 600 550 Z M 579.6875 914.0625 " transform="matrix(0.1,0,0,-0.1,0,110)"/>
<path style=" stroke:none;fill-rule:nonzero;fill:rgb(0%,0%,0%);fill-opacity:1;" d="M 62 55 C 62 53.894531 61.105469 53 60 53 C 58.894531 53 58 53.894531 58 55 C 58 56.105469 58.894531 57 60 57 C 61.105469 57 62 56.105469 62 55 "/>
<path style="fill:none;stroke-width:10;stroke-linecap:round;stroke-linejoin:round;stroke:rgb(0%,0%,0%);stroke-opacity:1;stroke-miterlimit:10;" d="M 620 550 C 620 561.054688 611.054688 570 600 570 C 588.945312 570 580 561.054688 580 550 C 580 538.945312 588.945312 530 600 530 C 611.054688 530 620 538.945312 620 550 Z M 620 550 " transform="matrix(0.1,0,0,-0.1,0,110)"/>
</g>
</svg>
